<svg width="70" height="70" viewBox="0 0 70 70" fill="none" xmlns="http://www.w3.org/2000/svg">
<rect x="0.499969" y="0.499847" width="69" height="69" rx="34.5" stroke="#E6388D"/>
<rect x="5.99997" y="5.99985" width="58" height="58" rx="29" fill="#E6388D"/>
<path fill-rule="evenodd" clip-rule="evenodd" d="M44.2084 34.2915V26.4998H46.3334V34.2915C46.3334 34.8783 45.8577 35.354 45.2709 35.354C44.6841 35.354 44.2084 34.8783 44.2084 34.2915Z" fill="white"/>
<path d="M40.6667 32.1665V27.9165H29.3334V32.1665C29.3334 35.2961 31.8704 37.8332 35 37.8332C38.1297 37.8332 40.6667 35.2961 40.6667 32.1665Z" fill="white"/>
<path d="M23.7064 25.8526L33.2739 21.6003C34.3728 21.1119 35.6272 21.1119 36.7261 21.6003L46.2936 25.8526C46.8545 26.1018 46.8545 26.8979 46.2936 27.1471L36.7261 31.3994C35.6272 31.8878 34.3728 31.8878 33.2739 31.3994L23.7064 27.1471C23.1455 26.8979 23.1455 26.1018 23.7064 25.8526Z" fill="white"/>
<path d="M38.2577 39.8159L36.0073 42.0915C35.4528 42.6522 34.5472 42.6522 33.9927 42.0915L31.7423 39.8159C31.3947 39.4644 30.8872 39.3145 30.4128 39.454C26.4389 40.6226 23.6667 43.2631 23.6667 46.3332C23.6667 47.898 24.9352 49.1665 26.5 49.1665H43.5C45.0648 49.1665 46.3334 47.898 46.3334 46.3332C46.3334 43.2631 43.5611 40.6226 39.5872 39.454C39.1129 39.3145 38.6054 39.4644 38.2577 39.8159Z" fill="white"/>
</svg>
