<svg width="70" height="70" viewBox="0 0 70 70" fill="none" xmlns="http://www.w3.org/2000/svg">
<rect x="0.5" y="0.499847" width="69" height="69" rx="34.5" stroke="#E6388D"/>
<rect x="6" y="5.99985" width="58" height="58" rx="29" fill="#E6388D"/>
<path d="M35 50.9374C38.1521 50.9374 41.2335 50.0026 43.8544 48.2514C46.4753 46.5002 48.5181 44.0111 49.7243 41.0989C50.9306 38.1867 51.2462 34.9822 50.6313 31.8906C50.0163 28.799 48.4984 25.9592 46.2695 23.7303C44.0406 21.5014 41.2008 19.9835 38.1092 19.3686C35.0177 18.7536 31.8132 19.0693 28.901 20.2755C25.9888 21.4818 23.4997 23.5245 21.7485 26.1455C19.9972 28.7664 19.0625 31.8477 19.0625 34.9999C19.0625 39.2267 20.7416 43.2805 23.7305 46.2694C26.7193 49.2582 30.7731 50.9374 35 50.9374ZM30.1543 37.0094C29.8725 37.0094 29.6022 36.8975 29.403 36.6982C29.2037 36.4989 29.0918 36.2287 29.0918 35.9469C29.0918 35.6651 29.2037 35.3949 29.403 35.1956C29.6022 34.9963 29.8725 34.8844 30.1543 34.8844H32.0002V28.0022C32.0002 27.7204 32.1121 27.4502 32.3114 27.2509C32.5107 27.0517 32.7809 26.9397 33.0627 26.9397H35.8727C37.208 26.9397 38.4886 27.4702 39.4328 28.4144C40.377 29.3586 40.9075 30.6392 40.9075 31.9746C40.9075 33.3099 40.377 34.5905 39.4328 35.5347C38.4886 36.4789 37.208 37.0094 35.8727 37.0094H34.1252V38.2681H38.8073C39.0891 38.2681 39.3593 38.38 39.5586 38.5793C39.7578 38.7786 39.8698 39.0488 39.8698 39.3306C39.8698 39.6124 39.7578 39.8826 39.5586 40.0819C39.3593 40.2812 39.0891 40.3931 38.8073 40.3931H34.1252V42.0031C34.1252 42.2849 34.0133 42.5552 33.814 42.7544C33.6148 42.9537 33.3445 43.0656 33.0627 43.0656C32.7809 43.0656 32.5107 42.9537 32.3114 42.7544C32.1121 42.5552 32.0002 42.2849 32.0002 42.0031V40.3931H30.1543C29.8725 40.3931 29.6022 40.2812 29.403 40.0819C29.2037 39.8826 29.0918 39.6124 29.0918 39.3306C29.0918 39.0488 29.2037 38.7786 29.403 38.5793C29.6022 38.38 29.8725 38.2681 30.1543 38.2681H32.0002V37.0094H30.1543Z" fill="white"/>
<path d="M38.7832 31.9746C38.7822 31.203 38.4753 30.4633 37.9296 29.9178C37.384 29.3723 36.6442 29.0655 35.8726 29.0647H34.1252V34.8844H35.8726C36.6442 34.8836 37.384 34.5769 37.9296 34.0313C38.4753 33.4858 38.7822 32.7461 38.7832 31.9746Z" fill="white"/>
</svg>
