<svg width="70" height="70" viewBox="0 0 70 70" fill="none" xmlns="http://www.w3.org/2000/svg">
<rect x="0.499969" y="0.499847" width="69" height="69" rx="34.5" stroke="#E6388D"/>
<rect x="5.99997" y="5.99985" width="58" height="58" rx="29" fill="#E6388D"/>
<path d="M48.1042 44.1657L45.7667 44.7182C45.2425 44.8457 44.8317 45.2423 44.7184 45.7665L44.2225 47.849C43.9534 48.9823 42.5084 49.3365 41.7575 48.444L37.5217 43.5707C37.1817 43.174 37.3659 42.5507 37.8759 42.4232C40.3834 41.814 42.6359 40.4115 44.2934 38.414C44.5625 38.0882 45.0442 38.0457 45.3417 38.3432L48.4867 41.4882C49.5634 42.5648 49.1809 43.9107 48.1042 44.1657Z" fill="white"/>
<path d="M21.825 44.1657L24.1625 44.7182C24.6867 44.8457 25.0975 45.2423 25.2109 45.7665L25.7067 47.849C25.9759 48.9823 27.4208 49.3365 28.1717 48.444L32.4075 43.5707C32.7475 43.174 32.5633 42.5507 32.0533 42.4232C29.5458 41.814 27.2933 40.4115 25.6358 38.414C25.3667 38.0882 24.885 38.0457 24.5875 38.3432L21.4425 41.4882C20.3659 42.5648 20.7484 43.9107 21.825 44.1657Z" fill="white"/>
<path d="M35 20.8332C29.5175 20.8332 25.0834 25.2674 25.0834 30.7499C25.0834 32.804 25.6925 34.6882 26.7409 36.2607C28.2709 38.5274 30.6934 40.1282 33.5125 40.539C33.9942 40.624 34.49 40.6665 35 40.6665C35.51 40.6665 36.0059 40.624 36.4875 40.539C39.3067 40.1282 41.7292 38.5274 43.2592 36.2607C44.3075 34.6882 44.9167 32.804 44.9167 30.7499C44.9167 25.2674 40.4825 20.8332 35 20.8332ZM39.335 30.4382L38.1592 31.614C37.9609 31.8124 37.8475 32.1949 37.9184 32.4782L38.2584 33.9374C38.5275 35.0849 37.9184 35.5382 36.8984 34.929L35.4817 34.0932C35.2267 33.9374 34.8017 33.9374 34.5467 34.0932L33.13 34.929C32.11 35.524 31.5009 35.0849 31.77 33.9374L32.11 32.4782C32.1667 32.209 32.0675 31.8124 31.8692 31.614L30.665 30.4382C29.9709 29.744 30.1975 29.0499 31.1609 28.894L32.6767 28.639C32.9317 28.5965 33.2292 28.3699 33.3425 28.1432L34.1784 26.4715C34.6317 25.5649 35.3684 25.5649 35.8217 26.4715L36.6575 28.1432C36.7709 28.3699 37.0684 28.5965 37.3375 28.639L38.8534 28.894C39.8025 29.0499 40.0292 29.744 39.335 30.4382Z" fill="white"/>
</svg>
