<svg width="70" height="70" viewBox="0 0 70 70" fill="none" xmlns="http://www.w3.org/2000/svg">
<rect x="0.5" y="0.499847" width="69" height="69" rx="34.5" stroke="#E6388D"/>
<rect x="6" y="5.99985" width="58" height="58" rx="29" fill="#E6388D"/>
<path d="M47.75 50.229H22.25C21.6692 50.229 21.1875 49.7473 21.1875 49.1665C21.1875 48.5857 21.6692 48.104 22.25 48.104H47.75C48.3308 48.104 48.8125 48.5857 48.8125 49.1665C48.8125 49.7473 48.3308 50.229 47.75 50.229Z" fill="white"/>
<path d="M25.9333 29.8715H23.6667C22.8875 29.8715 22.25 30.509 22.25 31.2882V43.4999C22.25 44.279 22.8875 44.9165 23.6667 44.9165H25.9333C26.7125 44.9165 27.35 44.279 27.35 43.4999V31.2882C27.35 30.4949 26.7125 29.8715 25.9333 29.8715Z" fill="white"/>
<path d="M36.1333 25.3524H33.8667C33.0875 25.3524 32.45 25.9899 32.45 26.769V43.4999C32.45 44.279 33.0875 44.9165 33.8667 44.9165H36.1333C36.9125 44.9165 37.55 44.279 37.55 43.4999V26.769C37.55 25.9899 36.9125 25.3524 36.1333 25.3524Z" fill="white"/>
<path d="M46.3334 20.8332H44.0667C43.2875 20.8332 42.65 21.4707 42.65 22.2499V43.4999C42.65 44.279 43.2875 44.9165 44.0667 44.9165H46.3334C47.1125 44.9165 47.75 44.279 47.75 43.4999V22.2499C47.75 21.4707 47.1125 20.8332 46.3334 20.8332Z" fill="white"/>
</svg>
