<svg width="224" height="48" viewBox="0 0 224 48" fill="none" xmlns="http://www.w3.org/2000/svg">
<path d="M135.125 22.8057L135.798 23.1344C135.882 23.1754 135.957 23.2114 136.026 23.2448C136.156 23.3069 136.266 23.3599 136.38 23.4191L136.381 23.4194C137.191 23.8372 137.561 24.4168 137.684 24.9969C137.811 25.6011 137.681 26.2688 137.368 26.8323C136.943 27.5959 136.167 27.891 135.355 27.603C134.606 27.3372 134.087 26.8141 133.799 26.0659L135.125 22.8057ZM135.125 22.8057L135.498 22.1563M135.125 22.8057L135.498 22.1563M135.498 22.1563C136.005 21.276 136.503 20.4107 137.01 19.528L137.291 19.0398L137.394 18.861M135.498 22.1563L137.394 18.861M137.394 18.861C136.074 19.473 134.988 20.3764 134.21 21.6564L134.209 21.6567C133.358 23.0537 133.21 24.5327 133.799 26.0658L137.394 18.861ZM137.922 18.6364C138.206 18.5257 138.499 18.4269 138.801 18.3393L138.802 18.3392C140.511 17.8433 142.262 17.8718 144.036 18.2575L137.922 18.6364ZM137.922 18.6364L138.176 18.7465C138.26 18.7831 138.352 18.8214 138.448 18.8614C138.674 18.9563 138.923 19.0607 139.153 19.1729L139.153 19.1732C140.491 19.8294 141.738 20.7081 142.591 22.1052L142.591 22.1053C144.114 24.6016 143.826 27.879 141.82 30.0272C141.813 30.0341 141.807 30.0409 141.801 30.0477C141.937 30.0342 142.068 30.0221 142.194 30.0104C142.478 29.9841 142.742 29.9597 143.015 29.9252C144.813 29.6975 146.447 29.2508 147.833 28.2093L147.833 28.2093C148.845 27.4487 149.547 26.5435 149.782 25.3793C150.087 23.8665 149.753 22.4859 148.825 21.2402C147.631 19.6377 146.005 18.6863 144.036 18.2576L137.922 18.6364ZM141.076 30.7298L141.088 30.8342C141.174 31.5696 141.26 32.2999 141.346 33.0308C141.391 33.417 141.436 33.8033 141.482 34.1907L141.554 34.8091H142.177C142.182 34.8091 142.191 34.8093 142.203 34.8096C142.264 34.8111 142.404 34.8144 142.502 34.8056M141.076 30.7298L152.18 16.9093C153.821 18.4787 154.982 20.3762 155.362 22.7015C155.846 25.6541 155.099 28.2922 152.991 30.4777C151.147 32.3913 148.873 33.4994 146.408 34.159L146.408 34.159C145.113 34.5054 143.802 34.6899 142.502 34.8056M141.076 30.7298C139.924 31.6858 138.562 32.2541 137.036 32.4371L141.076 30.7298ZM142.502 34.8056C142.503 34.8055 142.503 34.8055 142.503 34.8055L142.439 34.1084L142.501 34.8056C142.502 34.8056 142.502 34.8056 142.502 34.8056ZM131.939 31.5453L131.939 31.5455C133.55 32.469 135.304 32.6447 137.036 32.4371L131.939 31.5453ZM131.939 31.5453C129.512 30.1516 128.005 28.0339 127.738 25.1634L131.939 31.5453ZM130.518 17.519L130.518 17.519C128.463 19.6244 127.46 22.18 127.738 25.1633L130.518 17.519ZM130.518 17.519C132.761 15.2216 135.51 13.9084 138.633 13.4165M130.518 17.519L138.633 13.4165M138.633 13.4165C141.488 12.9666 144.32 13.1255 147.103 13.9743L138.633 13.4165Z" fill="#E6388D" stroke="#F6E774" stroke-width="1.4"/>
<path d="M87.9357 18.4621C88.0945 18.4622 88.2534 18.4622 88.4123 18.4623L85.1594 20.8672H84.4594V21.5672V23.6914V24.3914H85.1594H87.843C87.8225 24.6242 87.8026 24.8514 87.7829 25.0766C87.7825 25.0816 87.7821 25.0865 87.7816 25.0914M87.9357 18.4621C87.9327 18.6035 87.9304 18.745 87.9281 18.8844C87.9248 19.0829 87.9216 19.2774 87.9167 19.462L87.9167 19.464C87.9111 19.6977 87.9039 19.9306 87.8961 20.1672M87.9357 18.4621C87.9396 18.2733 87.9447 18.0844 87.9525 17.9002M87.9357 18.4621C87.1698 18.4619 86.4039 18.462 85.6379 18.4621C85.1751 18.4622 84.7122 18.4623 84.2492 18.4623H82.4123H81.7123V17.7623V14.2714V13.5714H82.4123H103.788H104.488V14.2714V17.7543V18.4543H103.788H93.7387M87.8961 20.1672H88.5731V20.8672L87.8735 20.8448C87.8781 20.7018 87.8828 20.5614 87.8875 20.4227C87.8904 20.337 87.8933 20.2519 87.8961 20.1672ZM87.8961 20.1672H84.4594H83.7594V20.8672V24.3914V25.0914H84.4594H87.7816M87.7816 25.0914C87.768 25.2477 87.7544 25.403 87.7407 25.5585M87.7816 25.0914H88.4843C88.483 25.1066 88.4816 25.1217 88.4803 25.1369C88.4483 25.5026 88.4168 25.8637 88.3839 26.2336M87.7407 25.5585C87.6125 25.5685 87.481 25.578 87.3474 25.5876C86.7858 25.6281 86.1846 25.6714 85.6103 25.7668L85.6101 25.7668C84.444 25.9607 83.3185 26.3817 82.3364 27.1547L87.7407 25.5585ZM87.7407 25.5585L87.3623 26.2886C87.5932 26.272 87.8241 26.2554 88.0545 26.235C88.1238 26.2291 88.1938 26.2305 88.2699 26.2321C88.3063 26.2328 88.3441 26.2336 88.3839 26.2336M87.7407 25.5585C87.7229 25.7616 87.705 25.9651 87.6866 26.1716L88.0517 26.204L88.0519 26.2041L88.3839 26.2336M87.7407 25.5585C87.8263 25.5519 87.9104 25.545 87.9928 25.5377L87.9954 25.5375C88.1049 25.5282 88.2464 25.5311 88.3298 25.5327C88.353 25.5332 88.3716 25.5336 88.3839 25.5336V26.2336M87.9525 17.9002L104.299 32.6473C104.355 32.4869 104.417 32.3443 104.49 32.1772C104.527 32.0944 104.566 32.0056 104.608 31.9056L104.609 31.9037C104.727 31.6205 104.845 31.3376 104.963 31.054C105.156 30.592 105.35 30.1283 105.546 29.6586L105.847 28.9392L105.099 28.7174C101.304 27.591 97.4743 26.5334 93.5245 25.9377C93.5424 25.6511 93.5602 25.3652 93.5783 25.077M87.9525 17.9002C87.9525 17.8999 87.9525 17.8997 87.9525 17.8995L87.9525 17.9002ZM87.9525 17.9002C87.9518 17.9178 87.9507 18.0145 88.0116 18.1333C88.0926 18.2913 88.2306 18.3894 88.3613 18.4322C88.3786 18.4378 88.3949 18.4423 88.4098 18.4457L88.4132 17.9188L88.4132 17.9182L87.9525 17.9002ZM93.7387 18.4543C93.7215 19.0233 93.7047 19.5866 93.6877 20.1528M93.7387 18.4543C93.7455 18.2292 93.7524 18.0031 93.7593 17.7756L93.0596 17.7543V18.4543H93.7387ZM93.6877 20.1528H101.8H102.5V20.8528V24.377V25.077H101.8H93.5783M93.6877 20.1528H92.9874L92.9209 24.377M93.6877 20.1528C93.685 20.2446 93.6822 20.3365 93.6795 20.4284L93.6667 20.8528H101.1H101.8V21.5528V23.677V24.377H101.1H92.9209M93.5783 25.077C93.5919 24.86 93.6056 24.6418 93.6195 24.421L92.9209 24.377M93.5783 25.077H92.9209V24.377M91.2506 31.964C90.2233 33.1755 88.8795 33.8342 87.3725 34.0759L91.2506 31.964ZM87.3722 34.076C86.223 34.2607 85.0341 34.2521 83.8578 33.8521L87.3722 34.076ZM83.8576 33.852C82.7362 33.4708 81.7921 32.7633 81.236 31.6266L83.8576 33.852ZM81.2359 31.6265C80.4771 30.0758 80.987 28.216 82.3361 27.1549L81.2359 31.6265Z" fill="#E6388D" stroke="#F6E774" stroke-width="1.4"/>
<path d="M198.053 22.74C198.052 22.74 198.051 22.74 198.051 22.74M198.053 22.74C198.053 22.74 198.053 22.74 198.053 22.74L198.051 22.74M198.053 22.74C198.052 22.74 198.051 22.74 198.051 22.74M198.053 22.74L198.051 22.74M179.322 32.1538C179.299 32.1379 179.28 32.1223 179.265 32.1086L178.706 31.7088L179.162 31.1328C179.891 30.2126 180.619 29.2929 181.355 28.3628C181.541 28.128 181.728 27.8925 181.915 27.6562H181.019H180.319V26.9562V23.4357V22.7357H181.019H181.268C181.512 22.7357 181.756 22.7357 181.999 22.7358C183.065 22.7361 184.128 22.7364 185.191 22.731C185.921 21.3577 186.521 19.9459 186.932 18.4688H183.527H182.846L182.827 17.7878C182.819 17.486 182.811 17.1858 182.803 16.8866C182.78 16.0198 182.757 15.1605 182.732 14.2906L182.712 13.5707H183.432H198.85H199.55V14.2707V17.7522V18.4522H198.85H196.686C196.689 18.4635 196.692 18.4748 196.695 18.4861L196.695 18.4863C197.102 19.9437 197.642 21.3564 198.283 22.7383C198.961 22.7337 199.639 22.7344 200.314 22.7351C200.564 22.7354 200.813 22.7357 201.061 22.7357H201.372H202.072V23.4357V26.9454V27.6454H201.372H201.134C202.073 29.0288 203.08 30.3348 204.149 31.6274L204.75 32.3537L203.881 32.7188C203.628 32.8252 203.384 32.927 203.145 33.0274C203.058 33.0638 202.971 33.1 202.885 33.1362L202.884 33.1364C202.681 33.2214 202.478 33.3061 202.275 33.3906C201.586 33.6783 200.899 33.9645 200.215 34.2575C200.11 34.3026 199.877 34.3957 199.598 34.3367C199.299 34.2734 199.119 34.0763 199.023 33.9503L199.023 33.9499C197.489 31.923 195.935 29.8643 194.583 27.6541C192.617 27.6484 190.653 27.6479 188.688 27.6547C187.681 29.1558 186.583 30.5818 185.438 31.9623C185.13 32.3333 184.815 32.7021 184.491 33.0647C184.368 33.2043 184.216 33.2814 184.108 33.3214C184.01 33.3577 183.805 33.4163 183.572 33.3552L183.572 33.3552L183.569 33.3545C182.316 33.0205 181.066 32.6784 179.819 32.337C179.73 32.3127 179.642 32.2885 179.553 32.2642L179.553 32.2643L179.54 32.2605C179.44 32.2311 179.367 32.1863 179.322 32.1538ZM198.381 22.9478C198.381 22.9478 198.381 22.9474 198.38 22.9467L198.38 22.9467C198.381 22.9474 198.381 22.9478 198.381 22.9478ZM194.831 27.6548L194.829 27.6548L194.831 27.6548ZM188.462 27.6555C188.463 27.6555 188.464 27.6555 188.465 27.6555H188.462ZM191.373 22.7234H192.205C192.115 22.4403 192.024 22.1582 191.934 21.8778C191.894 21.7506 191.853 21.6237 191.812 21.4972C191.667 21.9038 191.52 22.3133 191.373 22.7234Z" fill="#E6388D" stroke="#F6E774" stroke-width="1.4"/>
<path d="M180.862 16.2079L180.181 15.9001C180.084 15.8562 179.984 15.8103 179.884 15.764C179.69 15.6746 179.494 15.5837 179.303 15.5028L179.303 15.5028C175.404 13.8452 171.331 13.0226 167.107 12.9938C167.107 12.9938 167.107 12.9938 167.107 12.9938L167.102 13.6938C166.073 13.6865 165.038 13.7654 164.014 13.8784L180.862 16.2079ZM180.862 16.2079L180.51 16.8676M180.862 16.2079L180.51 16.8676M176.362 19.7038C174.099 18.8309 171.774 18.2308 169.378 17.9673L169.377 17.9673C168.246 17.8428 167.107 17.7678 165.975 17.7564L165.975 17.7564C164.562 17.742 163.218 17.9512 161.983 18.5454L161.983 18.5455C161.52 18.7679 161.146 19.0468 160.875 19.4179C160.742 19.6013 160.703 19.7644 160.709 19.8978C160.716 20.0313 160.771 20.1907 160.923 20.3618C161.184 20.6551 161.537 20.8614 161.99 21.0476C163.111 21.5074 164.277 21.7102 165.528 21.9278C165.87 21.9873 166.218 22.0479 166.573 22.1151L166.574 22.1152C167.077 22.2105 167.59 22.2997 168.109 22.3899C169.695 22.6657 171.335 22.9509 172.916 23.4472L172.917 23.4474C173.693 23.6922 174.494 23.9916 175.244 24.4549L176.362 19.7038ZM176.362 19.7038C176.721 19.8426 177.074 19.9876 177.437 20.1369M176.362 19.7038L177.437 20.1369M174.855 31.6254C175.907 30.8471 176.681 29.8209 176.957 28.4451C177.12 27.6382 177.07 26.8617 176.772 26.1613C176.473 25.4601 175.946 24.8885 175.244 24.455L174.855 31.6254ZM174.855 31.6254C173.602 32.553 172.187 33.0337 170.742 33.2987L170.742 33.2987C168.858 33.6437 166.979 33.624 165.132 33.4655C162.272 33.2216 159.518 32.5332 156.887 31.3579L156.887 31.3577C156.569 31.2156 156.249 31.0616 155.933 30.9098C155.782 30.8374 155.633 30.7654 155.485 30.6956L154.813 30.3777L155.171 29.726C155.607 28.9303 156.036 28.1512 156.466 27.3674C156.61 27.106 156.754 26.8441 156.899 26.5809L157.216 26.0045L157.81 26.2847C157.921 26.3366 158.014 26.3828 158.099 26.4247C158.256 26.5023 158.384 26.5653 158.532 26.6228L158.533 26.6228C158.843 26.743 159.146 26.8641 159.445 26.9833C160.22 27.2933 160.966 27.5914 161.742 27.8314L161.743 27.8314C163.386 28.3399 165.076 28.6495 166.799 28.764C167.733 28.8254 168.594 28.8587 169.435 28.7146L169.436 28.7145C170.01 28.6166 170.401 28.4805 170.67 28.1952L170.671 28.1934C170.739 28.1225 170.806 28.0166 170.866 27.8842C170.462 27.7076 170.094 27.5604 169.726 27.4791L169.726 27.479C168.874 27.2901 168.019 27.1319 167.151 26.9713C166.833 26.9124 166.513 26.8531 166.19 26.7918C166.065 26.7681 165.939 26.7443 165.814 26.7206C163.658 26.3123 161.446 25.8936 159.303 25.1677L174.855 31.6254ZM171.045 27.9523L171.041 27.9611C171.064 27.9714 171.074 27.9774 171.074 27.9774C171.074 27.9774 171.069 27.9745 171.062 27.9681C171.057 27.9641 171.051 27.9589 171.045 27.9527L171.118 27.7888L171.591 27.9556L171.118 27.7873L171.325 27.3213M171.045 27.9523L170.932 27.722C170.942 27.6936 170.944 27.6809 170.944 27.6809C170.944 27.6809 170.943 27.6842 170.943 27.6903C170.942 27.6984 170.942 27.7102 170.943 27.7249L171.118 27.7871L171.325 27.3213M171.045 27.9523L171.117 27.7887L170.943 27.7274C170.945 27.7556 170.952 27.794 170.97 27.8374C170.992 27.8912 171.022 27.9291 171.045 27.9523ZM171.325 27.3213C171.636 27.4596 171.704 27.6356 171.591 27.9556C171.5 28.2134 171.365 28.4792 171.179 28.6754L165.957 26.0352C166.078 26.0582 166.199 26.0811 166.321 26.1041C166.636 26.164 166.952 26.2225 167.268 26.281C168.14 26.4423 169.012 26.6038 169.877 26.7956C170.375 26.9057 170.856 27.1135 171.325 27.3213ZM180.51 16.8676C180.23 17.3929 179.955 17.9066 179.682 18.4178C179.396 18.9526 179.112 19.4846 178.824 20.0246L178.527 20.5809M180.51 16.8676L178.527 20.5809M178.527 20.5809L177.943 20.3437M178.527 20.5809L177.943 20.3437M177.943 20.3437C177.771 20.2739 177.603 20.205 177.437 20.1369M177.943 20.3437L177.437 20.1369M156.209 23.5218C155.418 22.8653 154.751 21.9906 154.675 20.7772L159.303 25.1676C158.217 24.8002 157.148 24.3012 156.209 23.5218Z" fill="#E6388D" stroke="#F6E774" stroke-width="1.4"/>
<path d="M81.0151 34.0615L80.387 33.3818C77.5999 30.3656 74.8191 27.3565 72.0432 24.3527C69.7514 21.8728 67.463 19.3965 65.1771 16.9227C65.6195 16.4547 66.0536 15.9958 66.4893 15.5352L66.9198 15.08L66.515 14.6018C66.0519 14.0548 65.5995 13.5209 65.1525 12.9935C64.7795 12.5532 64.4102 12.1175 64.0416 11.6822L63.5253 11.0724L62.9887 11.6645C60.4767 14.4361 57.247 16.0316 53.6839 17.329L52.6999 17.6872L53.4071 18.4595C53.5134 18.5755 53.6132 18.6826 53.7086 18.7849C53.8986 18.9887 54.0711 19.1737 54.2417 19.373L54.242 19.3734C54.7535 19.9703 55.2578 20.5729 55.7557 21.182C55.8332 21.277 55.9763 21.4334 56.2035 21.5187C56.4527 21.6123 56.6859 21.5791 56.8611 21.521M81.0151 34.0615L56.6415 20.8563M81.0151 34.0615L80.19 34.4809M81.0151 34.0615L80.19 34.4809M56.8611 21.521C56.8616 21.5209 56.862 21.5207 56.8624 21.5206L56.6415 20.8563M56.8611 21.521C56.8608 21.5211 56.8606 21.5212 56.8603 21.5213L56.6415 20.8563M56.8611 21.521C57.0042 21.4739 57.1786 21.4206 57.362 21.3646C57.6236 21.2846 57.9036 21.199 58.1372 21.118L58.1373 21.118C58.3265 21.0523 58.5162 20.9833 58.706 20.9126M56.6415 20.8563C56.8238 20.7964 57.0076 20.7405 57.1913 20.6846C57.4313 20.6116 57.6713 20.5387 57.9078 20.4566C58.1841 20.3608 58.4583 20.2586 58.737 20.1532C58.7266 20.4064 58.7163 20.6595 58.706 20.9126M58.706 20.9126C58.8841 20.8463 59.0625 20.7785 59.2407 20.7108C59.2997 20.6884 59.3586 20.666 59.4175 20.6437M58.706 20.9126C58.5334 25.1385 58.3613 29.3443 58.1886 33.5617L58.161 34.2353L58.833 34.2882C59.8698 34.3699 60.8925 34.4512 61.9175 34.5327C62.337 34.566 62.7569 34.5994 63.1783 34.6329L63.9018 34.6903L63.933 33.9651C64.025 31.8253 64.1161 29.697 64.2072 27.5696C64.2576 26.3914 64.3081 25.2133 64.3586 24.0337C65.4582 25.2254 66.5577 26.4174 67.6568 27.6094L59.4175 20.6437M59.4175 20.6437C59.4279 20.3905 59.4382 20.1372 59.4486 19.8839L59.4175 20.6437ZM80.19 34.4809C80.0124 34.5712 79.8355 34.6611 79.6593 34.7507C78.766 35.2048 77.8891 35.6505 77.0113 36.0947L77.0111 36.0948M80.19 34.4809L77.0111 36.0948M77.0111 36.0948L76.992 36.1045C76.8664 36.1681 76.7275 36.2383 76.6026 36.2855C76.464 36.3379 76.2527 36.3986 76.0048 36.3516C75.7592 36.305 75.585 36.1729 75.4759 36.0764C75.3768 35.9888 75.2717 35.8747 75.175 35.7699L75.1587 35.7522L75.1584 35.7519M77.0111 36.0948L75.1584 35.7519M75.1584 35.7519C73.908 34.3949 72.6577 33.0377 71.4075 31.6806M75.1584 35.7519L71.4075 31.6806M71.4075 31.6806L71.4035 31.6762M71.4075 31.6806L71.4035 31.6762M71.4035 31.6762C70.1547 30.3206 68.9059 28.965 67.657 27.6095L71.4035 31.6762Z" fill="#E6388D" stroke="#F6E774" stroke-width="1.4"/>
<path d="M129.747 30.8089L128.944 30.2691C128.874 30.2225 128.841 30.2004 128.809 30.1781C127.724 29.4446 126.639 28.7112 125.555 27.9778C123.391 26.5146 121.228 25.0515 119.064 23.5877C118.664 23.3172 118.263 23.0442 117.861 22.7706C117.232 22.3429 116.601 21.9136 115.969 21.4896C116.01 20.8107 116.045 20.1314 116.08 19.4549C116.089 19.2879 116.098 19.1211 116.106 18.9545L129.747 30.8089ZM129.747 30.8089L128.983 31.4029C128.547 31.7417 128.114 32.0777 127.684 32.4126C127.055 32.9013 126.429 33.3878 125.799 33.8772L125.397 34.1893L124.976 33.9036C122.363 32.1295 119.751 30.3571 117.122 28.5727C116.636 28.2425 116.148 27.9119 115.661 27.5808M129.747 30.8089L115.661 27.5808M115.661 27.5808C115.559 29.7143 115.457 31.829 115.355 33.9691L115.32 34.6905L114.6 34.6333C114.19 34.6008 113.783 34.5684 113.376 34.5361C112.342 34.4539 111.313 34.372 110.266 34.2894L109.621 34.2385V33.5916C109.621 33.5814 109.621 33.5663 109.621 33.5481C109.62 33.4925 109.619 33.4077 109.622 33.3428L109.622 33.3428L109.622 33.3382L109.622 33.3375C109.718 31.3602 109.814 29.3828 109.911 27.4054L109.911 27.4053C109.916 27.309 109.92 27.2127 109.925 27.1163C109.98 26.0069 110.034 24.895 110.095 23.7829C108.553 22.7402 107.013 21.6921 105.475 20.6449C105.082 20.3768 104.688 20.1089 104.295 19.8411L104.293 19.84C104.244 19.8067 104.193 19.7696 104.139 19.7306C104.118 19.7154 104.096 19.6999 104.075 19.6842L103.32 19.1433L104.048 18.5668C104.111 18.5169 104.175 18.4653 104.24 18.4133C104.355 18.3209 104.473 18.2271 104.586 18.1388L115.661 27.5808ZM107.029 16.2396C106.458 16.6906 105.884 17.1343 105.307 17.5805C105.068 17.7659 104.827 17.9517 104.587 18.1386L107.029 16.2396ZM107.029 16.2396C107.146 16.1466 107.355 16.0093 107.643 16.0107C107.918 16.0121 108.12 16.1422 108.216 16.2093L108.216 16.2096C108.929 16.7084 109.644 17.2033 110.376 17.7091C110.452 16.3735 110.528 15.0505 110.606 13.7067L110.647 12.9883L111.364 13.0494C112.06 13.1088 112.751 13.1678 113.437 13.2264C114.183 13.2902 114.922 13.3535 115.654 13.4158L116.295 13.4703V14.1133C116.295 14.2301 116.297 14.3533 116.298 14.4801C116.302 14.7685 116.305 15.0754 116.292 15.3671L116.292 15.3677C116.253 16.2303 116.206 17.0943 116.16 17.955C116.142 18.2887 116.124 18.6219 116.106 18.9543L107.029 16.2396Z" fill="#E6388D" stroke="#F6E774" stroke-width="1.4"/>
<path d="M214.307 14.7936L214.677 15.5116C215.822 17.7336 216.634 19.9908 216.83 22.4157C216.915 23.4717 216.902 24.4671 216.638 25.4195C216.277 26.7229 215.66 27.7666 214.59 28.4745L214.59 28.4747C213.899 28.9325 213.105 29.1432 212.208 29.2133C211.214 29.2908 210.314 29.1323 209.499 28.6521C208.821 28.2518 208.389 27.7824 208.239 27.1185C208.216 27.0147 208.204 26.9256 208.189 26.8104C208.18 26.7445 208.17 26.6701 208.157 26.5794L208.066 25.9846H207.464H203.033H202.35L202.333 26.6669C202.317 27.2924 202.411 27.8833 202.585 28.45L202.585 28.4508C202.936 29.593 203.575 30.5331 204.421 31.3301L204.421 31.3303C205.45 32.2992 206.628 33.0477 208.008 33.4723L208.008 33.4723C210.377 34.2007 212.785 34.2227 215.156 33.5615C218.89 32.52 221.378 30.0855 222.368 26.2772L222.369 26.277C222.882 24.2994 222.727 22.3295 222.387 20.4446C221.975 18.1429 221.184 15.9784 220.209 13.9035M214.307 14.7936L219.575 14.2004M214.307 14.7936L215.07 14.5294C215.294 14.452 215.517 14.3748 215.739 14.2978C216.743 13.9503 217.734 13.6072 218.726 13.2655M214.307 14.7936L218.954 13.9274M220.209 13.9035C220.208 13.9031 220.208 13.9028 220.208 13.9025L219.575 14.2004M220.209 13.9035C220.209 13.9037 220.209 13.904 220.209 13.9043L219.575 14.2004M220.209 13.9035C220.206 13.8974 220.203 13.8911 220.2 13.8847C220.159 13.7979 220.109 13.689 220.055 13.6C219.998 13.5051 219.873 13.318 219.635 13.2122C219.391 13.1042 219.166 13.1406 219.052 13.1659C218.947 13.189 218.832 13.2289 218.743 13.2598L218.726 13.2655M219.575 14.2004L219.573 14.1978C219.38 13.7825 219.379 13.7807 218.954 13.9274M218.726 13.2655L218.954 13.9274M218.726 13.2655L218.726 13.2657L218.954 13.9274M215.299 15.1909C215.407 15.4007 215.513 15.6111 215.615 15.8223C215.586 15.8324 215.557 15.8424 215.528 15.8524L215.299 15.1909ZM215.299 15.1909L215.921 14.8703C215.937 14.9001 215.952 14.9299 215.967 14.9597C215.745 15.0365 215.522 15.1136 215.299 15.1909Z" fill="#E6388D" stroke="#F6E774" stroke-width="1.4"/>
<path d="M216.69 24.5546L217.204 25.1231L216.592 25.5836C215.792 26.1846 215.003 26.7784 214.21 27.3746C213.943 27.5756 213.675 27.7769 213.407 27.9789L212.898 28.3614L212.469 27.8914C209.063 24.1608 205.665 20.4374 202.246 16.6902L201.721 16.1154L202.348 15.6544C203.047 15.1405 203.741 14.6288 204.439 14.1151C204.83 13.8269 205.222 13.538 205.616 13.2477L206.126 12.8725L206.55 13.3418C209.034 16.087 211.512 18.8283 213.996 21.5748C214.893 22.5673 215.791 23.5604 216.69 24.5546Z" fill="#E6388D" stroke="#F6E774" stroke-width="1.4"/>
<path d="M74.5929 27.6222L73.901 27.5678L73.9496 26.8754C74.2595 22.4584 74.5672 18.0761 74.8771 13.667L74.9268 12.959L75.6341 13.0185C76.5673 13.0971 77.489 13.1751 78.4123 13.2532C78.9613 13.2997 79.5109 13.3462 80.0637 13.3929L80.7533 13.4512L80.7029 14.1414C80.5485 16.2558 80.3947 18.3659 80.2409 20.4757C80.0746 22.7563 79.9084 25.0365 79.7415 27.3215L79.6902 28.0236L78.9883 27.9683L74.5929 27.6222Z" fill="#E6388D" stroke="#F6E774" stroke-width="1.4"/>
<path d="M123.73 13.1014L124.184 12.726L124.632 13.1088L124.849 13.2947C125.761 14.0751 126.676 14.8574 127.617 15.6609L128.246 16.1982L127.612 16.7296C126.667 17.5213 125.725 18.3111 124.783 19.1006C123.284 20.3575 121.785 21.6134 120.281 22.8743L119.835 23.2489L119.385 22.8771C118.362 22.0299 117.345 21.1885 116.304 20.3261L115.652 19.7868L116.304 19.2476C117.236 18.4766 118.164 17.708 119.092 16.9404C120.638 15.6608 122.181 14.3836 123.73 13.1014Z" fill="#E6388D" stroke="#F6E774" stroke-width="1.4"/>
<path fill-rule="evenodd" clip-rule="evenodd" d="M20.634 24.2655C23.346 24.4322 23.1313 24.3685 23.46 20.7364C23.9956 21.0134 24.9454 21.7739 25.4448 22.1607C24.7991 22.5677 24.9038 22.2715 24.4661 22.9486L22.7136 26.4699L20.833 24.5484C20.5997 24.2802 20.7831 24.5396 20.634 24.2655ZM32.8708 16.7249C38.2934 16.7288 41.3934 18.9817 42.4884 18.813C42.9888 18.7356 43.2099 18.3654 43.5249 18.2046C43.5909 19.6053 43.0764 27.3235 42.9247 29.1145C42.776 30.8761 42.4733 32.521 42.2556 34.2429C42.0194 36.106 41.3053 37.143 40.2415 38.1098C36.6266 41.3953 26.4743 42.2758 20.5616 42.2734C19.13 42.2734 17.9322 41.9096 16.7207 42.5377C16.3294 42.7406 15.2856 43.6462 14.2605 44.2556C13.6408 44.6234 8.83538 46.4963 8.28857 46.407C7.80974 45.6937 10.0669 44.6753 10.3178 41.4468C8.89212 41.2497 5.91692 40.6559 4.79199 39.771C4.64575 39.6557 4.16398 39.1939 4.02752 39.0419C0.92907 35.5883 1.69549 23.1339 1.7938 17.8633C3.36039 18.9425 2.7632 19.3592 4.814 18.9925C4.81008 21.037 4.75726 22.9712 4.64819 25.0103C4.49559 27.8765 4.07301 29.2586 6.07832 29.4778C6.98267 29.5768 7.97261 29.6803 8.89652 29.7009C10.1056 29.7279 10.4484 29.3297 10.5365 28.1771C10.6778 26.3233 10.7805 24.1165 10.7805 22.2598L13.1825 24.7068C13.4589 24.9926 13.652 25.2799 13.9201 25.582L17.0332 28.8939C19.6636 31.8268 19.0116 31.6537 22.9415 29.6808C24.0851 29.1062 23.8185 28.6218 23.8351 27.2298C24.5918 27.4926 25.2653 27.8613 26.0312 28.1427C30.1108 29.6401 36.5141 30.3932 40.0796 27.7569C41.904 26.4081 43.7699 22.1019 39.0149 20.2711C36.3248 19.2347 32.7671 19.0307 30.4923 18.4007C29.9469 18.2497 29.4128 17.9785 28.9007 17.8731C29.2157 17.3574 29.8731 17.0656 30.4566 16.9274C31.2225 16.746 32.0701 16.7244 32.8708 16.7249ZM36.9318 23.9473C34.9372 22.2647 22.0587 22.8383 24.086 16.9842C24.379 16.1385 24.7982 15.7928 25.2887 15.2913C29.4074 11.0836 39.9065 12.8898 43.6271 15.0824L42.2904 17.5383C41.7127 17.4662 40.11 16.7925 39.4003 16.5626C36.697 15.6864 31.9043 14.8941 29.4143 15.9939C26.757 17.1676 27.2075 18.8419 29.9963 19.5504C32.0031 20.0603 34.2525 20.4271 36.2969 20.8379C38.2704 21.2351 40.8568 21.7724 40.7825 24.0684C40.714 26.1811 38.7625 27.4039 36.8799 27.8741C33.2322 28.7855 27.0006 27.8255 24.2308 25.9565L25.5925 23.5487C26.4205 23.7429 27.5034 24.2209 28.3662 24.5092C30.4047 25.1902 36.9802 26.7567 36.9318 23.9473ZM10.1819 14.7372C10.3824 15.1285 14.2732 19.2234 14.8357 19.8309L21.0962 26.6454C21.5637 27.17 22.0915 27.7103 22.6461 28.3639C22.4069 28.6272 20.1209 29.7636 19.7052 29.9303L10.0723 19.5637C9.83559 19.3322 9.95004 19.3519 9.67762 19.2538L9.29514 28.4595L5.82644 28.204C5.56232 26.8351 6.36151 19.5416 6.18103 17.2392L3.75803 17.9962C3.41517 17.3441 2.09851 16.1096 1.85151 15.5948C4.23343 14.5769 5.88072 13.9479 7.91049 12.3559C8.55806 11.848 9.03494 11.2773 9.55485 10.8929L11.4941 13.235C11.1806 13.7611 10.4523 14.2141 10.1819 14.7372ZM18.5533 22.8422C18.4232 22.2279 19.131 13.4796 19.2557 12.1402L22.6667 12.4986L22.4182 17.7618C22.2979 19.5146 22.1697 21.3032 22.0108 23.0977L18.5533 22.8422ZM2.03199 14.1763C2.12492 12.2284 2.5343 8.73021 3.31099 7.20884C4.25789 5.35408 5.49042 4.3176 7.72268 3.47872C11.1024 2.20887 18.4403 1.95931 22.4686 1.8083C27.3464 1.62591 33.4005 1.21603 37.9985 2.30153C40.2528 2.83349 41.3581 4.37104 42.0786 6.4685C42.4361 7.50939 43.4261 12.2735 43.2285 13.3904C40.1329 12.4025 36.5625 11.4175 32.9779 11.4793C26.353 11.593 24.6138 14.4396 24.0107 14.7206C23.9652 12.7986 24.5155 11.3812 22.4456 11.1635C21.2096 11.0336 18.9016 10.4609 18.2481 11.4538C17.8275 12.0926 17.4357 19.3308 17.4044 20.7139C16.9554 20.5202 15.2015 18.3389 14.6337 17.7795L11.8879 14.8838C12.2371 13.7111 13.7137 13.6635 11.5812 11.4043C10.9243 10.708 9.97939 8.76404 8.47492 10.1315C8.00831 10.5551 7.65176 11.0017 7.09761 11.4327C5.70318 12.5172 3.7145 13.6081 2.03199 14.1763ZM6.65302 46.7973C7.00028 47.5626 7.05114 47.5989 7.73295 47.9941C9.04423 48.077 11.0916 47.267 12.2698 46.8826C13.8472 46.3683 14.8939 45.7937 16.0565 44.9837C18.2696 43.4422 17.4675 43.9884 20.3459 43.9933C22.2035 43.9963 23.9295 43.8502 25.8067 43.8443C26.8749 43.8408 33.218 43.0407 34.3219 42.4793C35.8152 41.7199 40.1173 41.4546 42.5613 37.8652C44.0051 35.7437 44.1763 31.4355 44.5163 28.5566C45.0347 24.1606 44.9349 22.1445 44.9022 17.7417C44.8885 15.8585 44.8846 11.4763 44.4111 9.71422C44.2174 8.99203 44.0247 8.10852 43.8814 7.35152C43.2901 4.23082 41.9578 1.9902 38.9073 0.965C35.8372 -0.0675507 32.0178 -0.0866737 28.5897 0.0751228C26.7198 0.163376 24.9019 0.0888519 23.0516 0.210445C21.2908 0.326641 19.4948 0.404598 17.6808 0.504128C14.3901 0.685043 10.7306 1.02629 7.70849 1.85929C4.87709 2.63983 2.58125 4.63139 1.63289 7.13481C0.601861 9.85641 0.300086 16.1527 0.122053 19.6691C0.072654 20.6447 0.135259 21.5881 0.104446 22.5701C-0.0452189 27.3338 -0.297596 33.8404 1.50865 38.0182C3.47924 42.5739 6.82518 42.1131 8.10907 42.7691C8.16874 43.3707 7.51383 44.2365 7.23211 44.617C6.57036 45.5103 6.52243 45.4686 6.65302 46.7973Z" fill="#F6E774"/>
<path fill-rule="evenodd" clip-rule="evenodd" d="M29.9125 17.7004C32.7464 18.9482 40.3083 18.5035 42.1298 22.1866C42.8223 23.5878 42.4208 25.5377 41.6905 26.6899C39.3942 30.3151 32.9591 30.5058 28.6995 29.4223C27.9351 29.2276 27.2337 29.031 26.5309 28.8114C25.7684 28.5736 25.0914 28.2274 24.3602 28.0205C24.371 29.8881 23.4862 29.9812 21.2608 31.1005C18.8466 32.315 18.4206 31.0746 17.2512 29.8572L15.7619 28.2402C15.0981 27.6362 14.9118 27.2714 14.2554 26.6414L11.2856 23.4628C11.0278 24.9577 11.3223 28.0377 10.8219 29.2291C10.483 30.0361 9.79091 30.2327 8.67919 30.1734C3.97991 29.9219 3.88453 29.893 4.12761 25.5235C4.20342 24.1683 4.50862 20.7608 4.34967 19.616C2.7459 19.8038 2.90095 19.0816 2.18833 18.9316C1.82004 23.2069 1.85721 30.1381 2.59331 34.2453C3.38907 38.6839 4.75171 39.9022 8.17835 40.5744C8.96335 40.7289 10.8801 41.0225 11.4651 41.3471C11.2567 41.681 11.2323 41.2294 10.8288 42.2184C10.4644 43.1122 9.64956 44.8027 9.43729 45.5317C14.8296 44.1374 15.5202 42.39 16.9024 41.8644C17.841 41.5074 19.3753 41.6795 20.4543 41.6854C25.5272 41.7143 35.0495 41.1069 39.3052 38.1455C41.0914 36.9021 41.447 36.027 41.8749 33.1892C42.208 30.9799 42.3802 28.6584 42.5783 26.4119C42.7949 23.9457 42.9852 21.711 42.9456 19.2135C41.4758 19.5493 39.6867 18.1667 36.8191 17.6455C35.1787 17.3469 31.2257 16.7983 29.9125 17.7004Z" fill="#82CEE9"/>
<path fill-rule="evenodd" clip-rule="evenodd" d="M2.54234 13.3836C3.53913 13.1624 5.35467 12.0456 6.1343 11.543C6.4439 11.3435 6.63807 11.1954 6.92126 10.937C7.18684 10.6948 7.35803 10.6041 7.62312 10.3501C8.23841 9.75983 9.36628 8.22032 10.926 9.91182C11.3398 10.3604 11.7526 10.76 12.1356 11.2714C13.6557 13.3002 13.327 12.807 12.5469 14.8603L15.908 18.434C16.1799 18.7233 16.5888 19.3945 16.9781 19.5181C17.0823 17.9854 17.1757 16.4523 17.3005 14.9383C17.6639 10.5463 17.1083 10.0216 22.4258 10.7532C24.6502 11.0591 24.2814 11.4165 24.526 13.5429C24.8385 13.4238 25.04 13.2036 25.3579 13.0036C29.0839 10.6571 33.9206 10.6762 38.1225 11.5107C39.6842 11.8205 41.172 12.379 42.6706 12.6452C42.3894 10.355 42.1659 7.99822 41.3769 6.00029C40.6232 4.09012 39.4592 2.94676 37.1345 2.52805C32.6191 1.71466 27.0184 2.01815 22.3592 2.25496C18.4225 2.455 11.755 2.55453 8.35531 3.67337C3.65651 5.21974 2.92237 7.8928 2.54234 13.3836Z" fill="#82CEE9"/>
<path fill-rule="evenodd" clip-rule="evenodd" d="M36.9319 23.9475C36.9803 26.7564 30.4049 25.1899 28.3663 24.5089C27.5035 24.2206 26.4202 23.7426 25.5921 23.5489L24.231 25.9567C27.0007 27.8257 33.2319 28.7852 36.8796 27.8738C38.7626 27.4036 40.7141 26.1808 40.7826 24.0681C40.857 21.7726 38.2701 21.2347 36.2966 20.8381C34.2526 20.4267 32.0028 20.06 29.996 19.5506C27.2071 18.8421 26.7567 17.1678 29.4144 15.994C31.9045 14.8943 36.6967 15.6866 39.3999 16.5623C40.1101 16.7927 41.7129 17.4664 42.29 17.5385L43.6272 15.0821C39.9066 12.89 29.4076 11.0838 25.2889 15.2915C24.7978 15.793 24.3787 16.1382 24.0857 16.9844C22.0589 22.838 34.9374 22.2644 36.9319 23.9475Z" fill="#E6388D"/>
<path fill-rule="evenodd" clip-rule="evenodd" d="M10.182 14.7371C10.452 14.2139 11.1807 13.7609 11.4938 13.2348L9.55498 10.8922C9.03506 11.2771 8.55819 11.8478 7.91062 12.3557C5.88085 13.9477 4.23356 14.5767 1.85115 15.5946C2.09864 16.1094 3.41529 17.3439 3.75767 17.996L6.18116 17.239C6.36115 19.5414 5.56245 26.835 5.82705 28.2039L9.29526 28.4593L9.67774 19.2536C9.94968 19.3517 9.83572 19.3321 10.0724 19.5635L19.7053 29.9302C20.121 29.7635 22.4071 28.627 22.6462 28.3642C22.0916 27.7101 21.5639 27.1694 21.0963 26.6452L14.8358 19.8307C14.2733 19.2232 10.3825 15.1283 10.182 14.7371Z" fill="#E6388D"/>
<path fill-rule="evenodd" clip-rule="evenodd" d="M17.2511 29.8573C18.4205 31.0747 18.847 32.3151 21.2607 31.1007C23.4861 29.9813 24.3709 29.8882 24.3601 28.0207C25.0913 28.2276 25.7687 28.5737 26.5312 28.812C27.2341 29.0312 27.935 29.2278 28.6994 29.4224C32.959 30.5064 39.3941 30.3152 41.6904 26.69C42.4207 25.5378 42.8227 23.588 42.1297 22.1872C40.3082 18.5037 32.7467 18.9484 29.9124 17.7006C31.2256 16.7984 35.1786 17.3471 36.819 17.6457C39.6866 18.1668 41.4757 19.5494 42.9455 19.2136C42.9851 21.7111 42.7953 23.9459 42.5782 26.4125C42.3806 28.6585 42.2079 30.9801 41.8753 33.1893C41.4469 36.0271 41.0918 36.9023 39.3051 38.1457C35.0499 41.107 25.5276 41.7145 20.4542 41.6855C19.3757 41.6797 17.8409 41.5076 16.9023 41.8645C15.5206 42.3901 14.83 44.1375 9.43718 45.5319C9.64945 44.8028 10.4643 43.1123 10.8287 42.2185C11.2322 41.2296 11.2566 41.6816 11.4655 41.3477C10.88 41.0227 8.96324 40.729 8.17823 40.5745C4.7516 39.9024 3.38896 38.684 2.59319 34.2454C1.8571 30.1382 1.81992 23.207 2.18822 18.9322C2.90084 19.0817 2.74579 19.8039 4.34955 19.6161C4.509 20.761 4.20331 24.1685 4.12799 25.5236C3.88442 29.8931 3.97979 29.922 8.67956 30.1735C9.7908 30.2329 10.4829 30.0363 10.8218 29.2292C11.3222 28.0383 11.0277 24.9578 11.2855 23.4629L14.2553 26.6415C14.9117 27.2715 15.0985 27.6363 15.7617 28.2403L17.2511 29.8573ZM10.3181 41.4468C10.0671 44.6753 7.80945 45.6942 8.28828 46.4065C8.83559 46.4963 13.641 44.6239 14.2602 44.2556C15.2854 43.6462 16.3291 42.7407 16.7204 42.5377C17.9319 41.9096 19.1302 42.2739 20.5613 42.2734C26.474 42.2759 36.6268 41.3953 40.2412 38.1099C41.3055 37.143 42.0196 36.106 42.2553 34.2429C42.4735 32.521 42.7762 30.8761 42.9249 29.1145C43.0765 27.3235 43.5911 19.6058 43.5246 18.2046C43.2101 18.3659 42.9885 18.7361 42.4886 18.813C41.3936 18.9817 38.2931 16.7288 32.871 16.7254C32.0698 16.7249 31.2227 16.746 30.4568 16.9274C29.8728 17.0651 29.2154 17.3574 28.9009 17.8731C29.413 17.9786 29.9471 18.2497 30.4925 18.4007C32.7673 19.0312 36.325 19.2352 39.0151 20.2712C43.7701 22.1019 41.9037 26.4081 40.0798 27.7569C36.5143 30.3932 30.1105 29.6401 26.0314 28.1428C25.2655 27.8613 24.5915 27.4926 23.8348 27.2298C23.8187 28.6218 24.0853 29.1067 22.9417 29.6808C19.0118 31.6542 19.6633 31.8268 17.0329 28.8939L13.9203 25.582C13.6522 25.28 13.4586 24.9926 13.1822 24.7068L10.7807 22.2598C10.7802 24.117 10.678 26.3233 10.5362 28.1771C10.4486 29.3302 10.1058 29.7279 8.89623 29.7009C7.97232 29.6803 6.98287 29.5769 6.07804 29.4778C4.07321 29.2587 4.49579 27.8765 4.64839 25.0108C4.75746 22.9712 4.81029 21.037 4.8142 18.9925C2.7634 19.3597 3.36059 18.9425 1.794 17.8638C1.6952 23.134 0.929272 35.5883 4.02724 39.0419C4.16418 39.1944 4.64595 39.6557 4.79219 39.7705C5.91712 40.6559 8.89232 41.2497 10.3181 41.4468Z" fill="#1A112B"/>
<path fill-rule="evenodd" clip-rule="evenodd" d="M2.54236 13.3835C2.92239 7.89279 3.65653 5.21973 8.35532 3.67335C11.7551 2.55451 18.4225 2.45498 22.3593 2.25494C27.0184 2.01813 32.6191 1.71464 37.1345 2.52803C39.4592 2.94674 40.6233 4.0901 41.377 6.00027C42.1659 7.9982 42.3894 10.355 42.6706 12.6452C41.172 12.3789 39.6842 11.8205 38.1225 11.5106C33.9206 10.6762 29.0839 10.657 25.3579 13.0036C25.04 13.2036 24.8385 13.4237 24.526 13.5429C24.2814 11.4165 24.6502 11.0591 22.4258 10.7531C17.1083 10.0216 17.6639 10.5462 17.3005 14.9383C17.1758 16.4523 17.0823 17.9854 16.9782 19.5181C16.5888 19.3945 16.18 18.7233 15.908 18.434L12.5469 14.8603C13.327 12.807 13.6557 13.3002 12.1356 11.2714C11.7526 10.76 11.3398 10.3604 10.926 9.9118C9.36629 8.2203 8.23843 9.75981 7.62314 10.3501C7.35804 10.6041 7.18686 10.6948 6.92128 10.937C6.63809 11.1954 6.44392 11.3434 6.13431 11.543C5.35469 12.0455 3.53915 13.1624 2.54236 13.3835ZM2.03223 14.1763C3.71473 13.6081 5.70293 12.5172 7.09784 11.4327C7.6515 11.0017 8.00855 10.5551 8.47466 10.131C9.97914 8.76354 10.9241 10.708 11.5814 11.4038C13.7134 13.6635 12.2368 13.7111 11.8876 14.8838L14.6334 17.7795C15.2013 18.3389 16.9557 20.5202 17.4047 20.7139C17.436 19.3308 17.8272 12.0921 18.2479 11.4538C18.9013 10.4604 21.2099 11.0331 22.4458 11.1635C24.5152 11.3812 23.965 12.7986 24.0105 14.7201C24.6135 14.4396 26.3532 11.593 32.9781 11.4788C36.5627 11.417 40.1327 12.402 43.2282 13.3904C43.4263 12.2735 42.4359 7.50938 42.0788 6.46849C41.3584 4.37103 40.253 2.83348 37.9987 2.30152C33.4007 1.21553 27.3466 1.62541 22.4683 1.80829C18.4406 1.9593 11.1026 2.20886 7.72242 3.47871C5.49066 4.31759 4.25763 5.35406 3.31074 7.20834C2.53453 8.7302 2.12467 12.2284 2.03223 14.1763Z" fill="#1A112B"/>
<path fill-rule="evenodd" clip-rule="evenodd" d="M18.5535 22.8422L22.0105 23.0977C22.1699 21.3032 22.2976 19.5146 22.4184 17.7618L22.6668 12.4986L19.2554 12.1402C19.1311 13.4801 18.4229 22.2274 18.5535 22.8422Z" fill="#E6388D"/>
<path fill-rule="evenodd" clip-rule="evenodd" d="M20.6339 24.2654C20.7831 24.5395 20.5997 24.2801 20.833 24.5483L22.7136 26.4697L24.466 22.9485C24.9038 22.2714 24.7991 22.5675 25.4447 22.1606C24.9453 21.7737 23.9955 21.0133 23.4599 20.7363C23.1313 24.3683 23.346 24.4321 20.6339 24.2654Z" fill="#1A112B"/>
</svg>
