<svg width="40" height="40" viewBox="0 0 40 40" fill="none" xmlns="http://www.w3.org/2000/svg">
<rect width="40" height="40" rx="20" fill="#F6E774"/>
<path fill-rule="evenodd" clip-rule="evenodd" d="M20.8333 11.875C20.4882 11.875 20.2083 12.1548 20.2083 12.5C20.2083 12.8452 20.4882 13.125 20.8333 13.125C21.6267 13.125 22.4124 13.2813 23.1454 13.5849C23.8784 13.8885 24.5444 14.3335 25.1054 14.8946C25.6665 15.4556 26.1115 16.1216 26.4151 16.8546C26.7187 17.5876 26.875 18.3733 26.875 19.1667C26.875 19.5118 27.1548 19.7917 27.5 19.7917C27.8452 19.7917 28.125 19.5118 28.125 19.1667C28.125 18.2091 27.9364 17.2609 27.57 16.3763C27.2035 15.4916 26.6664 14.6878 25.9893 14.0107C25.3122 13.3336 24.5084 12.7965 23.6237 12.43C22.7391 12.0636 21.7909 11.875 20.8333 11.875ZM27.5 25.8333V24.4617C27.5 23.7802 27.0851 23.1674 26.4523 22.9143L24.7572 22.2362C23.9524 21.9143 23.0352 22.263 22.6475 23.0383L22.5 23.3333C22.5 23.3333 20.4167 22.9167 18.75 21.25C17.0833 19.5833 16.6667 17.5 16.6667 17.5L16.9617 17.3525C17.737 16.9648 18.0857 16.0476 17.7638 15.2428L17.0857 13.5477C16.8326 12.9149 16.2198 12.5 15.5383 12.5H14.1667C13.2462 12.5 12.5 13.2462 12.5 14.1667C12.5 21.5305 18.4695 27.5 25.8333 27.5C26.7538 27.5 27.5 26.7538 27.5 25.8333ZM20.2083 15.8333C20.2083 15.4882 20.4882 15.2083 20.8333 15.2083C21.3531 15.2083 21.8679 15.3107 22.3481 15.5096C22.8284 15.7086 23.2647 16.0001 23.6323 16.3677C23.9999 16.7353 24.2914 17.1716 24.4904 17.6519C24.6893 18.1321 24.7917 18.6469 24.7917 19.1667C24.7917 19.5118 24.5118 19.7917 24.1667 19.7917C23.8215 19.7917 23.5417 19.5118 23.5417 19.1667C23.5417 18.811 23.4716 18.4588 23.3355 18.1302C23.1994 17.8016 22.9999 17.5031 22.7484 17.2516C22.4969 17.0001 22.1984 16.8006 21.8698 16.6645C21.5412 16.5284 21.189 16.4583 20.8333 16.4583C20.4882 16.4583 20.2083 16.1785 20.2083 15.8333Z" fill="#28303F"/>
</svg>
