<svg width="70" height="70" viewBox="0 0 70 70" fill="none" xmlns="http://www.w3.org/2000/svg">
<rect x="0.5" y="0.5" width="69" height="69" rx="34.5" stroke="#E6388D"/>
<rect x="6" y="6" width="58" height="58" rx="29" fill="#E6388D"/>
<path d="M35.9601 46.2725C36.3493 46.363 36.3849 46.8728 36.0058 46.9992L33.7675 47.7358C28.1433 49.5492 25.1825 48.0333 23.355 42.4092L21.5417 36.8133C19.7283 31.1892 21.23 28.2142 26.8542 26.4008L28.0198 26.0148C28.4227 25.8814 28.8096 26.2835 28.6856 26.6894C28.5593 27.1031 28.4414 27.5452 28.3275 28.0158L26.9392 33.9517C25.3808 40.6242 27.6617 44.3075 34.3342 45.8942L35.9601 46.2725Z" fill="white"/>
<path d="M42.3242 22.5475L39.9583 21.995C35.2267 20.8758 32.4075 21.7966 30.75 25.225C30.325 26.0891 29.985 27.1375 29.7017 28.3416L28.3133 34.2775C26.925 40.1991 28.7525 43.1175 34.66 44.52L37.04 45.0866C37.8617 45.285 38.6267 45.4125 39.335 45.4691C43.755 45.8941 46.1067 43.8258 47.2967 38.7116L48.685 32.79C50.0733 26.8683 48.26 23.9358 42.3242 22.5475ZM39.6608 36.8841C39.5333 37.3658 39.1083 37.6775 38.6267 37.6775C38.5417 37.6775 38.4567 37.6633 38.3575 37.6491L34.235 36.6008C33.6683 36.4591 33.3283 35.8783 33.47 35.3116C33.6117 34.745 34.1925 34.405 34.7592 34.5466L38.8817 35.595C39.4625 35.7366 39.8025 36.3175 39.6608 36.8841ZM43.8117 32.0958C43.6842 32.5775 43.2592 32.8891 42.7775 32.8891C42.6925 32.8891 42.6075 32.875 42.5083 32.8608L35.6375 31.1183C35.0708 30.9766 34.7308 30.3958 34.8725 29.8291C35.0142 29.2625 35.595 28.9225 36.1617 29.0641L43.0325 30.8066C43.6133 30.9341 43.9533 31.515 43.8117 32.0958Z" fill="white"/>
</svg>
