<svg width="70" height="70" viewBox="0 0 70 70" fill="none" xmlns="http://www.w3.org/2000/svg">
<rect x="0.5" y="0.5" width="69" height="69" rx="34.5" stroke="#E6388D"/>
<rect x="6" y="6" width="58" height="58" rx="29" fill="#E6388D"/>
<path d="M49.1667 21.8959H20.8333C20.2525 21.8959 19.7708 21.4142 19.7708 20.8334C19.7708 20.2525 20.2525 19.7709 20.8333 19.7709H49.1667C49.7475 19.7709 50.2292 20.2525 50.2292 20.8334C50.2292 21.4142 49.7475 21.8959 49.1667 21.8959Z" fill="white"/>
<path d="M41.6158 49.6484C41.4317 50.0167 41.0492 50.2292 40.6667 50.2292C40.5108 50.2292 40.3408 50.1867 40.1992 50.1159L35 47.5234L29.8008 50.1159C29.6592 50.1867 29.4892 50.2292 29.3333 50.2292C28.9508 50.2292 28.5683 50.0167 28.3842 49.6484C28.115 49.11 28.3275 48.4725 28.8658 48.2175L33.9375 45.6817V42.0834H36.0625V45.6817L41.1342 48.2175C41.6725 48.4725 41.885 49.11 41.6158 49.6484Z" fill="white"/>
<path d="M22.25 20.8334V37.975C22.25 40.6667 23.6667 42.0834 26.3583 42.0834H43.6417C46.3333 42.0834 47.75 40.6667 47.75 37.975V20.8334H22.25ZM42.055 30.155L37.5925 33.8809C37.1817 34.2209 36.6575 34.3625 36.1617 34.2775C35.6517 34.1925 35.2125 33.8809 34.9433 33.4275L33.4558 30.9484L29.305 34.405C29.1067 34.575 28.8658 34.6459 28.625 34.6459C28.3275 34.6459 28.0158 34.5184 27.8033 34.2634C27.4208 33.81 27.4917 33.1442 27.945 32.7617L32.4075 29.0359C32.8183 28.6959 33.3425 28.5542 33.8383 28.6392C34.3483 28.7242 34.7875 29.0359 35.0567 29.4892L36.5442 31.9684L40.695 28.5117C41.1483 28.1292 41.8142 28.2 42.1967 28.6534C42.565 29.1067 42.5083 29.7725 42.055 30.155Z" fill="white"/>
</svg>
