<svg width="70" height="70" viewBox="0 0 70 70" fill="none" xmlns="http://www.w3.org/2000/svg">
<rect x="0.5" y="0.5" width="69" height="69" rx="34.5" stroke="#E6388D"/>
<rect x="6" y="6" width="58" height="58" rx="29" fill="#E6388D"/>
<path d="M49.1242 21.3008C48.1042 20.1391 46.5883 19.4166 44.9167 19.4166C43.33 19.4166 41.885 20.0683 40.8508 21.1308C40.2558 21.74 39.8025 22.4766 39.5333 23.2983C39.3492 23.865 39.25 24.46 39.25 25.0833C39.25 26.1458 39.5475 27.1516 40.0717 28.0016C40.355 28.4833 40.7233 28.9225 41.1483 29.2908C42.14 30.1975 43.4575 30.75 44.9167 30.75C45.54 30.75 46.135 30.6508 46.6875 30.4525C47.9908 30.0416 49.0817 29.1491 49.7617 28.0016C50.0592 27.52 50.2858 26.9675 50.4133 26.4008C50.5267 25.9758 50.5833 25.5366 50.5833 25.0833C50.5833 23.6383 50.0308 22.3066 49.1242 21.3008ZM47.0275 26.1175H45.9792V27.2225C45.9792 27.8033 45.4975 28.285 44.9167 28.285C44.3358 28.285 43.8542 27.8033 43.8542 27.2225V26.1175H42.8058C42.225 26.1175 41.7433 25.6358 41.7433 25.055C41.7433 24.4741 42.225 23.9925 42.8058 23.9925H43.8542V22.9866C43.8542 22.4058 44.3358 21.9241 44.9167 21.9241C45.4975 21.9241 45.9792 22.4058 45.9792 22.9866V23.9925H47.0275C47.6083 23.9925 48.09 24.4741 48.09 25.055C48.09 25.6358 47.6225 26.1175 47.0275 26.1175Z" fill="white"/>
<path d="M49.1667 35C49.1667 33.1442 48.8125 31.3592 48.1467 29.73C47.7075 30.0417 47.2117 30.2825 46.6875 30.4525C46.5317 30.5092 46.3758 30.5517 46.2058 30.5942C46.7442 31.9542 47.0417 33.4417 47.0417 35C47.0417 38.2867 45.71 41.2759 43.5567 43.4575C43.1458 42.9334 42.6217 42.4517 41.9983 42.0409C38.1592 39.4625 31.8692 39.4625 28.0017 42.0409C27.3783 42.4517 26.8683 42.9334 26.4433 43.4575C24.29 41.2759 22.9583 38.2867 22.9583 35C22.9583 28.3559 28.3558 22.9584 35 22.9584C36.5442 22.9584 38.0317 23.2559 39.3917 23.7942C39.4342 23.6242 39.4767 23.4684 39.5333 23.2984C39.7033 22.7742 39.9442 22.2925 40.27 21.8534C38.6408 21.1875 36.8558 20.8334 35 20.8334C27.1942 20.8334 20.8333 27.1942 20.8333 35C20.8333 39.1084 22.6042 42.8059 25.4092 45.3984C25.4092 45.4125 25.4092 45.4125 25.395 45.4267C25.5367 45.5684 25.7067 45.6817 25.8483 45.8092C25.9333 45.88 26.0042 45.9509 26.0892 46.0075C26.3442 46.22 26.6275 46.4184 26.8967 46.6167C26.9958 46.6875 27.0808 46.7442 27.18 46.815C27.4492 46.9992 27.7325 47.1692 28.03 47.325C28.1292 47.3817 28.2425 47.4525 28.3417 47.5092C28.625 47.665 28.9225 47.8067 29.2342 47.9342C29.3475 47.9909 29.4608 48.0475 29.5742 48.09C29.8858 48.2175 30.1975 48.3309 30.5092 48.43C30.6225 48.4725 30.7358 48.515 30.8492 48.5434C31.1892 48.6425 31.5292 48.7275 31.8692 48.8125C31.9683 48.8409 32.0675 48.8692 32.1808 48.8834C32.5775 48.9684 32.9742 49.025 33.385 49.0675C33.4417 49.0675 33.4983 49.0817 33.555 49.0959C34.0367 49.1384 34.5183 49.1667 35 49.1667C35.4817 49.1667 35.9633 49.1384 36.4308 49.0959C36.4875 49.0959 36.5442 49.0817 36.6008 49.0675C37.0117 49.025 37.4083 48.9684 37.805 48.8834C37.9042 48.8692 38.0033 48.8267 38.1167 48.8125C38.4567 48.7275 38.8108 48.6567 39.1367 48.5434C39.25 48.5009 39.3633 48.4584 39.4767 48.43C39.7883 48.3167 40.1142 48.2175 40.4117 48.09C40.525 48.0475 40.6383 47.9909 40.7517 47.9342C41.0492 47.8067 41.3467 47.665 41.6442 47.5092C41.7575 47.4525 41.8567 47.3817 41.9558 47.325C42.2392 47.155 42.5225 46.9992 42.8058 46.815C42.905 46.7584 42.99 46.6875 43.0892 46.6167C43.3725 46.4184 43.6417 46.22 43.8967 46.0075C43.9817 45.9367 44.0525 45.8659 44.1375 45.8092C44.2933 45.6817 44.4492 45.5542 44.5908 45.4267C44.5908 45.4125 44.5908 45.4125 44.5767 45.3984C47.3958 42.8059 49.1667 39.1084 49.1667 35Z" fill="white"/>
<path d="M35 27.8175C32.0675 27.8175 29.6875 30.1975 29.6875 33.13C29.6875 36.0058 31.94 38.3433 34.9292 38.4283C34.9717 38.4283 35.0283 38.4283 35.0567 38.4283C35.085 38.4283 35.1275 38.4283 35.1558 38.4283C35.17 38.4283 35.1842 38.4283 35.1842 38.4283C38.0458 38.3292 40.2983 36.0058 40.3125 33.13C40.3125 30.1975 37.9325 27.8175 35 27.8175Z" fill="white"/>
</svg>
