<svg width="70" height="70" viewBox="0 0 70 70" fill="none" xmlns="http://www.w3.org/2000/svg">
<rect x="0.5" y="0.5" width="69" height="69" rx="34.5" stroke="#E6388D"/>
<rect x="6" y="6" width="58" height="58" rx="29" fill="#E6388D"/>
<path fill-rule="evenodd" clip-rule="evenodd" d="M33.2578 21.2249C34.3545 20.6765 35.6455 20.6765 36.7423 21.2249L47.1077 26.4076C48.9349 27.3212 48.9349 29.9288 47.1077 30.8424L36.7423 36.0251C35.6455 36.5735 34.3545 36.5735 33.2578 36.0251L22.8924 30.8424C21.0651 29.9288 21.0652 27.3212 22.8924 26.4076L33.2578 21.2249ZM21.279 42.36C21.5173 41.8238 22.1452 41.5823 22.6815 41.8206L34.2807 46.9759C34.7386 47.1794 35.2613 47.1794 35.7191 46.9759L47.3184 41.8206C47.8546 41.5823 48.4825 41.8238 48.7209 42.36C48.9592 42.8963 48.7177 43.5242 48.1815 43.7625L36.5822 48.9177C35.5748 49.3654 34.425 49.3654 33.4177 48.9177L21.8184 43.7625C21.2822 43.5242 21.0407 42.8963 21.279 42.36ZM22.6815 35.4456C22.1452 35.2073 21.5173 35.4488 21.279 35.985C21.0407 36.5213 21.2822 37.1492 21.8184 37.3875L33.4177 42.5427C34.425 42.9904 35.5748 42.9904 36.5822 42.5427L48.1815 37.3875C48.7177 37.1492 48.9592 36.5213 48.7209 35.985C48.4825 35.4488 47.8546 35.2073 47.3184 35.4456L35.7191 40.6009C35.2613 40.8044 34.7386 40.8044 34.2807 40.6009L22.6815 35.4456Z" fill="white"/>
</svg>
