<svg width="70" height="70" viewBox="0 0 70 70" fill="none" xmlns="http://www.w3.org/2000/svg">
<rect x="0.5" y="0.5" width="69" height="69" rx="34.5" stroke="#E6388D"/>
<rect x="6" y="6" width="58" height="58" rx="29" fill="#E6388D"/>
<path fill-rule="evenodd" clip-rule="evenodd" d="M44.2084 34.2917V26.5H46.3334V34.2917C46.3334 34.8785 45.8577 35.3542 45.2709 35.3542C44.6841 35.3542 44.2084 34.8785 44.2084 34.2917Z" fill="white"/>
<path d="M40.6667 32.1666V27.9166H29.3334V32.1666C29.3334 35.2962 31.8704 37.8333 35 37.8333C38.1297 37.8333 40.6667 35.2962 40.6667 32.1666Z" fill="white"/>
<path d="M23.7064 25.8527L33.2739 21.6004C34.3728 21.112 35.6272 21.112 36.7261 21.6004L46.2936 25.8527C46.8545 26.1019 46.8545 26.898 46.2936 27.1472L36.7261 31.3995C35.6272 31.8879 34.3728 31.8879 33.2739 31.3995L23.7064 27.1472C23.1455 26.898 23.1455 26.1019 23.7064 25.8527Z" fill="white"/>
<path d="M38.2577 39.816L36.0073 42.0915C35.4528 42.6522 34.5472 42.6522 33.9927 42.0915L31.7423 39.816C31.3947 39.4644 30.8872 39.3146 30.4128 39.4541C26.4389 40.6227 23.6667 43.2631 23.6667 46.3332C23.6667 47.898 24.9352 49.1666 26.5 49.1666H43.5C45.0648 49.1666 46.3334 47.898 46.3334 46.3332C46.3334 43.2631 43.5611 40.6227 39.5872 39.4541C39.1129 39.3146 38.6054 39.4644 38.2577 39.816Z" fill="white"/>
</svg>
