<svg width="70" height="70" viewBox="0 0 70 70" fill="none" xmlns="http://www.w3.org/2000/svg">
<rect x="0.5" y="0.5" width="69" height="69" rx="34.5" stroke="#E6388D"/>
<rect x="6" y="6" width="58" height="58" rx="29" fill="#E6388D"/>
<path d="M34.0367 22.25H25.2108C22.3917 22.25 20.975 23.6808 20.975 26.5283V49.1667H28.625V43.8542C28.625 43.2733 29.1067 42.7917 29.6875 42.7917C30.2683 42.7917 30.75 43.2592 30.75 43.8542V49.1667H38.2583V26.5283C38.2583 23.6808 36.8558 22.25 34.0367 22.25ZM33.2292 36.0625H26.2167C25.6358 36.0625 25.1542 35.5808 25.1542 35C25.1542 34.4192 25.6358 33.9375 26.2167 33.9375H33.2292C33.81 33.9375 34.2917 34.4192 34.2917 35C34.2917 35.5808 33.81 36.0625 33.2292 36.0625ZM33.2292 30.75H26.2167C25.6358 30.75 25.1542 30.2683 25.1542 29.6875C25.1542 29.1067 25.6358 28.625 26.2167 28.625H33.2292C33.81 28.625 34.2917 29.1067 34.2917 29.6875C34.2917 30.2683 33.81 30.75 33.2292 30.75Z" fill="white"/>
<path d="M50.5833 48.1042H47.3675V43.8542C48.7133 43.415 49.6908 42.1542 49.6908 40.6667V37.8333C49.6908 35.9775 48.175 34.4617 46.3192 34.4617C44.4633 34.4617 42.9475 35.9775 42.9475 37.8333V40.6667C42.9475 42.14 43.9108 43.3867 45.2283 43.84V48.1042H19.4167C18.8358 48.1042 18.3542 48.5858 18.3542 49.1667C18.3542 49.7475 18.8358 50.2292 19.4167 50.2292H46.2342C46.2625 50.2292 46.2767 50.2433 46.305 50.2433C46.3333 50.2433 46.3475 50.2292 46.3758 50.2292H50.5833C51.1642 50.2292 51.6458 49.7475 51.6458 49.1667C51.6458 48.5858 51.1642 48.1042 50.5833 48.1042Z" fill="white"/>
</svg>
