<svg width="70" height="70" viewBox="0 0 70 70" fill="none" xmlns="http://www.w3.org/2000/svg">
<rect x="0.5" y="0.5" width="69" height="69" rx="34.5" stroke="white"/>
<rect x="6" y="6" width="58" height="58" rx="29" fill="white"/>
<path d="M47.75 50.2292H22.25C21.6692 50.2292 21.1875 49.7476 21.1875 49.1667C21.1875 48.5859 21.6692 48.1042 22.25 48.1042H47.75C48.3308 48.1042 48.8125 48.5859 48.8125 49.1667C48.8125 49.7476 48.3308 50.2292 47.75 50.2292Z" fill="#E6388D"/>
<path d="M25.9333 29.8716H23.6667C22.8875 29.8716 22.25 30.5091 22.25 31.2882V43.4999C22.25 44.2791 22.8875 44.9166 23.6667 44.9166H25.9333C26.7125 44.9166 27.35 44.2791 27.35 43.4999V31.2882C27.35 30.4949 26.7125 29.8716 25.9333 29.8716Z" fill="#E6388D"/>
<path d="M36.1333 25.3525H33.8667C33.0875 25.3525 32.45 25.99 32.45 26.7692V43.5C32.45 44.2792 33.0875 44.9167 33.8667 44.9167H36.1333C36.9125 44.9167 37.55 44.2792 37.55 43.5V26.7692C37.55 25.99 36.9125 25.3525 36.1333 25.3525Z" fill="#E6388D"/>
<path d="M46.3333 20.8333H44.0667C43.2875 20.8333 42.65 21.4708 42.65 22.2499V43.4999C42.65 44.2791 43.2875 44.9166 44.0667 44.9166H46.3333C47.1125 44.9166 47.75 44.2791 47.75 43.4999V22.2499C47.75 21.4708 47.1125 20.8333 46.3333 20.8333Z" fill="#E6388D"/>
</svg>
