<svg width="70" height="70" viewBox="0 0 70 70" fill="none" xmlns="http://www.w3.org/2000/svg">
<rect x="0.5" y="0.5" width="69" height="69" rx="34.5" stroke="white"/>
<rect x="6" y="6" width="58" height="58" rx="29" fill="white"/>
<path d="M47.7358 31.7558C47.2542 31.5574 46.6167 31.4583 45.8233 31.4583H38.3433C35.8783 31.4583 35 32.3366 35 34.8299V45.7949C35 46.6166 35.0992 47.2541 35.3117 47.7499C35.7508 48.7699 36.6858 49.1666 38.3433 49.1666H45.8233C48.2883 49.1666 49.1667 48.2741 49.1667 45.7949V34.8299C49.1667 33.1441 48.77 32.1949 47.7358 31.7558ZM43.5 45.9791H40.6667C40.6383 45.9791 40.5958 45.9791 40.5675 45.9649C40.355 45.9508 40.1708 45.8799 40.015 45.7383C39.76 45.5541 39.6042 45.2566 39.6042 44.9166C39.6042 44.3358 40.0858 43.8541 40.6667 43.8541H43.5C44.0808 43.8541 44.5625 44.3358 44.5625 44.9166C44.5625 45.4974 44.0808 45.9791 43.5 45.9791Z" fill="#82CEE9"/>
<path d="M47.7358 26.7691V27.9166C47.7358 28.6958 47.0983 29.3333 46.3191 29.3333H38.3433C34.7166 29.3333 32.875 31.1891 32.875 34.8299V47.7499C32.875 48.5291 32.2375 49.1666 31.4583 49.1666H28.6958C28.1291 49.1666 27.6758 48.7133 27.6758 48.1608C27.6758 47.5941 28.1291 47.1549 28.6958 47.1549H31.4583V41.7291H26.5C23.355 41.5733 20.8475 38.9808 20.8475 35.7933V26.7691C20.8475 23.4966 23.5108 20.8333 26.7975 20.8333H41.8C45.0725 20.8333 47.7358 23.4966 47.7358 26.7691Z" fill="#82CEE9"/>
</svg>
