<svg width="60" height="60" viewBox="0 0 60 60" fill="none" xmlns="http://www.w3.org/2000/svg">
<rect x="0.5" y="0.5" width="59" height="59" rx="29.5" fill="#1A112B"/>
<rect x="0.5" y="0.5" width="59" height="59" rx="29.5" stroke="white"/>
<path d="M20.5124 28.749C26.418 26.2088 30.3559 24.5341 32.3263 23.725C37.9521 21.4148 39.1211 21.0135 39.883 21.0001C40.0506 20.9974 40.4253 21.0384 40.668 21.2328C40.873 21.397 40.9294 21.6188 40.9563 21.7744C40.9833 21.9301 41.0169 22.2847 40.9902 22.5617C40.6854 25.7242 39.3662 33.3986 38.6951 36.9406C38.4111 38.4394 37.852 38.9419 37.3107 38.9911C36.1343 39.098 35.2409 38.2235 34.1015 37.4861C32.3186 36.3323 31.3113 35.614 29.5807 34.488C27.5806 33.1868 28.8772 32.4716 30.017 31.3028C30.3153 30.9969 35.4986 26.3423 35.5989 25.9201C35.6115 25.8673 35.6231 25.6705 35.5046 25.5665C35.3862 25.4626 35.2114 25.4981 35.0852 25.5264C34.9064 25.5665 32.0581 27.4251 26.5403 31.1023C25.7319 31.6504 24.9996 31.9174 24.3435 31.9035C23.6202 31.888 22.2288 31.4997 21.1945 31.1678C19.9258 30.7606 18.9175 30.5454 19.0053 29.8539C19.0511 29.4938 19.5534 29.1255 20.5124 28.749Z" fill="white"/>
</svg>
