<svg width="60" height="60" viewBox="0 0 60 60" fill="none" xmlns="http://www.w3.org/2000/svg">
<rect x="0.5" y="0.5" width="59" height="59" rx="29.5" fill="#1A112B"/>
<rect x="0.5" y="0.5" width="59" height="59" rx="29.5" stroke="white"/>
<path d="M30.978 38C23.4615 38 19.1758 32.0048 19 22.0128H22.7802C22.9011 29.3403 25.6703 32.4404 27.8681 33.0809V22.0128H31.4176V28.3283C33.5824 28.0592 35.8681 25.1769 36.6374 22H40.1758C39.8873 23.6445 39.311 25.202 38.4828 26.5752C37.6547 27.9484 36.5925 29.1077 35.3626 29.9808C36.7351 30.7771 37.9471 31.9035 38.9189 33.2858C39.8906 34.6681 40.5999 36.2748 41 38H37.0989C36.2637 34.964 34.1758 32.6069 31.4176 32.2866V38H30.989H30.978Z" fill="white"/>
</svg>
