<svg width="347" height="370" viewBox="0 0 347 370" fill="none" xmlns="http://www.w3.org/2000/svg">
<path fill-rule="evenodd" clip-rule="evenodd" d="M159.344 187.047C180.25 188.332 178.595 187.84 181.128 159.843C185.257 161.979 192.578 167.84 196.428 170.822C191.451 173.959 192.258 171.676 188.884 176.896L175.375 204.039L160.879 189.227C159.081 187.16 160.494 189.159 159.344 187.047ZM253.67 128.921C295.47 128.951 319.365 146.317 327.806 145.017C331.663 144.42 333.367 141.567 335.795 140.327C336.304 151.124 332.338 210.618 331.169 224.424C330.023 238.003 327.689 250.683 326.012 263.956C324.191 278.317 318.686 286.311 310.486 293.763C282.621 319.089 204.364 325.876 158.786 325.857C147.751 325.857 138.518 323.053 129.179 327.894C126.163 329.459 118.118 336.439 110.216 341.137C105.439 343.972 68.3971 358.409 64.182 357.721C60.4911 352.222 77.8903 344.372 79.8244 319.485C68.8344 317.966 45.9006 313.389 37.2292 306.568C36.1019 305.68 32.3883 302.119 31.3365 300.948C7.45256 274.326 13.3604 178.324 14.1182 137.697C26.194 146.015 21.5906 149.227 37.3989 146.4C37.3687 162.16 36.9615 177.069 36.1208 192.788C34.9445 214.882 31.6871 225.535 47.1447 227.225C54.1157 227.988 61.7465 228.786 68.8683 228.944C78.1881 229.152 80.831 226.083 81.5096 217.198C82.5992 202.909 83.3909 185.898 83.3909 171.586L101.906 190.448C104.036 192.652 105.526 194.866 107.592 197.194L131.589 222.724C151.864 245.331 146.839 243.997 177.132 228.789C185.947 224.36 183.892 220.626 184.02 209.897C189.852 211.922 195.044 214.764 200.948 216.934C232.395 228.476 281.754 234.281 309.238 213.959C323.301 203.562 337.684 170.369 301.03 156.257C280.295 148.267 252.871 146.695 235.336 141.839C231.132 140.675 227.015 138.585 223.068 137.772C225.496 133.796 230.563 131.548 235.06 130.482C240.964 129.083 247.498 128.917 253.67 128.921ZM284.973 184.594C269.599 171.623 170.327 176.045 185.954 130.92C188.212 124.401 191.443 121.736 195.225 117.87C226.973 85.4361 307.903 99.3591 336.583 116.26L326.279 135.191C321.827 134.635 309.472 129.442 304.001 127.67C283.164 120.916 246.22 114.809 227.026 123.286C206.543 132.334 210.015 145.24 231.513 150.701C246.982 154.632 264.321 157.459 280.08 160.626C295.292 163.687 315.229 167.829 314.656 185.528C314.128 201.813 299.085 211.238 284.574 214.863C256.456 221.888 208.42 214.488 187.07 200.082L197.566 181.521C203.949 183.018 212.296 186.703 218.947 188.925C234.661 194.175 285.347 206.25 284.973 184.594ZM78.7763 113.6C80.322 116.615 110.314 148.18 114.649 152.863L162.907 205.392C166.511 209.436 170.579 213.6 174.855 218.638C173.011 220.668 155.39 229.428 152.185 230.713L77.9318 150.803C76.107 149.019 76.9892 149.171 74.8893 148.415L71.941 219.375L45.2031 217.406C43.1672 206.854 49.3276 150.633 47.9364 132.885L29.2591 138.721C26.6162 133.694 16.467 124.178 14.5631 120.21C32.9237 112.364 45.6216 107.515 61.2677 95.2434C66.2594 91.3281 69.9353 86.9289 73.9429 83.9659L88.8916 102.02C86.4749 106.075 80.8612 109.567 78.7763 113.6ZM143.306 176.075C142.303 171.34 147.759 103.906 148.72 93.5805L175.013 96.3432L173.098 136.914C172.17 150.425 171.183 164.212 169.957 178.044L143.306 176.075ZM15.9542 109.276C16.6706 94.2608 19.8262 67.2954 25.8132 55.5681C33.1122 41.271 42.613 33.2815 59.82 26.8151C85.8717 17.0267 142.435 15.103 173.486 13.939C211.086 12.5331 257.753 9.37354 293.196 17.7409C310.573 21.8415 319.093 33.6935 324.647 49.8614C327.403 57.8849 335.033 94.6085 333.51 103.218C309.649 95.6025 282.127 88.0098 254.496 88.486C203.429 89.3628 190.022 111.306 185.374 113.471C185.023 98.6562 189.264 87.7302 173.309 86.0521C163.782 85.0506 145.991 80.6364 140.954 88.2895C137.711 93.2139 134.691 149.008 134.45 159.669C130.989 158.177 117.469 141.362 113.092 137.05L91.9266 114.73C94.6185 105.689 106.001 105.323 89.5627 87.9078C84.4994 82.5411 77.2154 67.5562 65.6185 78.0966C62.0217 81.362 59.2733 84.8049 55.0017 88.127C44.253 96.4868 28.9236 104.896 15.9542 109.276ZM51.5746 360.729C54.2514 366.629 54.6435 366.908 59.8991 369.954C70.0069 370.593 85.7888 364.35 94.8711 361.387C107.03 357.422 115.098 352.993 124.06 346.749C141.12 334.867 134.936 339.077 157.124 339.115C171.443 339.138 184.748 338.012 199.218 337.966C207.452 337.94 256.347 331.772 264.856 327.445C276.366 321.591 309.528 319.546 328.368 291.878C339.497 275.524 340.817 242.316 343.437 220.123C347.434 186.238 346.664 170.697 346.412 136.759C346.306 122.243 346.276 88.4633 342.627 74.8805C341.134 69.3135 339.648 62.5032 338.543 56.6679C333.985 32.6126 323.715 15.3411 300.201 7.43854C276.536 -0.520721 247.095 -0.668121 220.67 0.579071C206.256 1.25934 192.243 0.684875 177.98 1.62216C164.408 2.51785 150.564 3.11877 136.58 3.88596C111.215 5.28052 83.0064 7.91095 59.7106 14.332C37.8852 20.3487 20.1881 35.7003 12.8778 54.9975C4.93033 75.9765 2.60414 124.51 1.23181 151.616C0.851021 159.137 1.3336 166.408 1.09608 173.978C-0.0575833 210.698 -2.00299 260.853 11.9202 293.057C27.1101 328.174 52.9017 324.622 62.7984 329.678C63.2583 334.316 58.2101 340.99 56.0385 343.923C50.9375 350.808 50.568 350.487 51.5746 360.729Z" fill="#F6E774"/>
<path fill-rule="evenodd" clip-rule="evenodd" d="M230.867 136.441C252.711 146.059 311.001 142.631 325.041 171.021C330.38 181.823 327.284 196.853 321.656 205.734C303.955 233.679 254.351 235.149 221.517 226.797C215.624 225.296 210.217 223.781 204.8 222.088C198.922 220.255 193.704 217.586 188.068 215.992C188.151 230.387 181.331 231.105 164.176 239.733C145.567 249.095 142.283 239.533 133.269 230.149L121.789 217.685C116.673 213.029 115.236 210.217 110.177 205.36L87.2842 180.859C85.2973 192.382 87.5669 216.124 83.7101 225.308C81.0973 231.528 75.7626 233.044 67.193 232.587C30.9694 230.648 30.2342 230.425 32.108 196.743C32.6924 186.297 35.045 160.031 33.8197 151.206C21.4573 152.654 22.6525 147.087 17.1594 145.931C14.3204 178.886 14.607 232.314 20.281 263.974C26.4151 298.188 36.9187 307.58 63.3324 312.761C69.3835 313.951 84.1587 316.215 88.6678 318.717C87.0617 321.291 86.8732 317.81 83.7628 325.433C80.9541 332.323 74.673 345.354 73.0368 350.974C114.603 340.225 119.926 326.756 130.581 322.704C137.816 319.953 149.642 321.28 157.959 321.325C197.063 321.548 270.465 316.865 303.269 294.038C317.037 284.454 319.778 277.708 323.077 255.833C325.644 238.803 326.972 220.908 328.498 203.592C330.169 184.582 331.635 167.355 331.33 148.104C320.001 150.692 306.209 140.035 284.105 136.017C271.46 133.716 240.989 129.487 230.867 136.441Z" fill="#82CEE9"/>
<path fill-rule="evenodd" clip-rule="evenodd" d="M19.8883 103.165C27.5718 101.46 41.5666 92.8511 47.5763 88.9773C49.9628 87.4391 51.4595 86.2978 53.6424 84.3061C55.6896 82.4391 57.0092 81.7399 59.0526 79.7822C63.7954 75.2319 72.4894 63.3648 84.5124 76.4035C87.702 79.8616 90.884 82.9417 93.836 86.8835C105.554 102.522 103.02 98.7204 97.0067 114.548L122.915 142.096C125.011 144.325 128.163 149.499 131.164 150.452C131.967 138.638 132.687 126.82 133.649 115.149C136.45 81.2939 132.167 77.2501 173.156 82.8888C190.303 85.2471 187.46 88.0022 189.345 104.393C191.754 103.475 193.308 101.778 195.758 100.236C224.479 82.1481 261.762 82.2954 294.152 88.7278C306.19 91.1164 317.659 95.421 329.21 97.4732C327.042 79.82 325.32 61.6528 319.238 46.2521C313.428 31.5279 304.455 22.7145 286.536 19.487C251.73 13.2171 208.558 15.5565 172.643 17.3819C142.298 18.9239 90.9028 19.6911 64.6965 28.3155C28.4767 40.2354 22.8177 60.8403 19.8883 103.165Z" fill="#82CEE9"/>
<path fill-rule="evenodd" clip-rule="evenodd" d="M284.974 184.595C285.348 206.247 234.662 194.172 218.948 188.923C212.297 186.701 203.946 183.016 197.563 181.523L187.071 200.083C208.421 214.49 256.453 221.886 284.571 214.86C299.086 211.236 314.129 201.81 314.657 185.525C315.23 167.83 295.29 163.685 280.077 160.627C264.322 157.456 246.979 154.629 231.51 150.703C210.012 145.241 206.54 132.335 227.027 123.287C246.221 114.81 283.161 120.918 303.999 127.668C309.473 129.444 321.828 134.637 326.276 135.192L336.584 116.258C307.904 99.3605 226.974 85.4375 195.226 117.872C191.441 121.738 188.21 124.399 185.951 130.922C170.328 176.043 269.6 171.621 284.974 184.595Z" fill="#E6388D"/>
<path fill-rule="evenodd" clip-rule="evenodd" d="M78.7771 113.598C80.8582 109.566 86.4757 106.074 88.8886 102.019L73.9437 83.961C69.9361 86.9278 66.2602 91.3269 61.2685 95.2423C45.6224 107.514 32.9245 112.363 14.5601 120.208C16.4678 124.177 26.617 133.693 29.2561 138.72L47.9372 132.884C49.3247 150.632 43.168 206.853 45.2077 217.405L71.9418 219.374L74.8901 148.413C76.9863 149.169 76.1078 149.018 77.9326 150.802L152.186 230.712C155.39 229.427 173.012 220.666 174.856 218.641C170.58 213.599 166.512 209.431 162.908 205.39L114.65 152.862C110.314 148.179 80.3228 116.614 78.7771 113.598Z" fill="#E6388D"/>
<path fill-rule="evenodd" clip-rule="evenodd" d="M133.268 230.15C142.282 239.534 145.57 249.096 164.176 239.734C181.33 231.106 188.15 230.388 188.067 215.993C193.703 217.588 198.925 220.256 204.803 222.093C210.22 223.782 215.623 225.297 221.516 226.798C254.35 235.154 303.954 233.68 321.655 205.736C327.284 196.854 330.383 181.824 325.04 171.026C311 142.632 252.714 146.06 230.866 136.442C240.989 129.488 271.459 133.717 284.104 136.019C306.209 140.036 320 150.694 331.329 148.105C331.634 167.357 330.172 184.583 328.498 203.597C326.975 220.91 325.644 238.805 323.08 255.834C319.777 277.709 317.04 284.455 303.268 294.039C270.467 316.867 197.066 321.549 157.959 321.326C149.645 321.281 137.815 319.954 130.58 322.706C119.929 326.757 114.606 340.226 73.036 350.975C74.6722 345.355 80.9533 332.324 83.762 325.434C86.8724 317.811 87.0609 321.296 88.6708 318.722C84.1579 316.216 69.3827 313.953 63.3316 312.762C36.9179 307.581 26.4143 298.189 20.2802 263.975C14.6062 232.316 14.3196 178.887 17.1585 145.936C22.6517 147.088 21.4565 152.655 33.8188 151.208C35.0479 160.032 32.6916 186.299 32.111 196.745C30.2334 230.426 30.9686 230.649 67.196 232.588C75.7618 233.045 81.0965 231.53 83.7093 225.309C87.5661 216.129 85.2965 192.383 87.2834 180.86L110.176 205.362C115.235 210.218 116.675 213.03 121.788 217.686L133.268 230.15ZM79.826 319.486C77.8919 344.372 60.4889 352.226 64.1799 357.717C68.3987 358.409 105.44 343.976 110.213 341.137C118.116 336.44 126.161 329.459 129.177 327.895C138.516 323.053 147.753 325.861 158.784 325.858C204.362 325.876 282.622 319.089 310.484 293.764C318.688 286.311 324.192 278.317 326.009 263.956C327.691 250.683 330.025 238.003 331.171 224.424C332.339 210.619 336.306 151.128 335.793 140.327C333.369 141.57 331.661 144.424 327.808 145.017C319.366 146.317 295.467 128.951 253.671 128.925C247.496 128.921 240.966 129.084 235.062 130.482C230.56 131.544 225.493 133.796 223.069 137.772C227.016 138.585 231.133 140.675 235.337 141.839C252.872 146.699 280.296 148.271 301.032 156.257C337.686 170.369 323.299 203.563 309.24 213.959C281.755 234.281 232.393 228.476 200.95 216.934C195.046 214.764 189.85 211.922 184.018 209.897C183.894 220.626 185.948 224.364 177.134 228.79C146.84 244.001 151.862 245.332 131.586 222.724L107.593 197.194C105.527 194.866 104.034 192.652 101.904 190.448L83.3926 171.586C83.3888 185.902 82.6008 202.909 81.5075 217.198C80.8326 226.087 78.1898 229.152 68.8662 228.944C61.7444 228.786 54.1173 227.988 47.1426 227.225C31.6887 225.536 34.9461 214.882 36.1224 192.792C36.9632 177.07 37.3703 162.16 37.4005 146.4C21.5923 149.231 26.1956 146.015 14.1198 137.7C13.3582 178.324 7.45418 274.327 31.3343 300.948C32.39 302.123 36.1036 305.68 37.2308 306.564C45.9022 313.39 68.836 317.966 79.826 319.486Z" fill="#1A112B"/>
<path fill-rule="evenodd" clip-rule="evenodd" d="M19.8883 103.165C22.8177 60.8403 28.4767 40.2354 64.6965 28.3154C90.9028 19.6911 142.298 18.9238 172.643 17.3819C208.558 15.5565 251.73 13.2171 286.536 19.487C304.456 22.7145 313.429 31.5279 319.238 46.2521C325.32 61.6528 327.043 79.82 329.21 97.4732C317.659 95.421 306.19 91.1164 294.152 88.7279C261.762 82.2955 224.479 82.1481 195.758 100.236C193.308 101.778 191.754 103.475 189.345 104.393C187.46 88.0022 190.303 85.2471 173.156 82.8888C132.167 77.2501 136.45 81.2939 133.649 115.149C132.687 126.82 131.967 138.638 131.164 150.452C128.163 149.499 125.011 144.325 122.915 142.096L97.0067 114.548C103.02 98.7204 105.554 102.522 93.836 86.8835C90.884 82.9417 87.702 79.8616 84.5124 76.4035C72.4894 63.3649 63.7955 75.2319 59.0526 79.7822C57.0092 81.7399 55.6896 82.4391 53.6424 84.3061C51.4595 86.2978 49.9628 87.4391 47.5763 88.9773C41.5666 92.8511 27.5718 101.46 19.8883 103.165ZM15.956 109.276C28.9253 104.896 44.251 96.4868 55.0035 88.1269C59.2713 84.8049 62.0235 81.362 65.6164 78.0929C77.2134 67.5523 84.4974 82.5411 89.5644 87.904C105.999 105.323 94.6164 105.689 91.9246 114.73L113.09 137.05C117.467 141.362 130.991 158.177 134.452 159.669C134.693 149.008 137.709 93.2101 140.952 88.2895C145.989 80.6326 163.784 85.0468 173.311 86.0521C189.262 87.7301 185.021 98.6561 185.372 113.467C190.02 111.306 203.431 89.3628 254.497 88.4822C282.129 88.006 309.647 95.5987 333.508 103.218C335.035 94.6085 327.401 57.8848 324.648 49.8613C319.095 33.6934 310.574 21.8415 293.198 17.7409C257.755 9.36974 211.088 12.5293 173.484 13.9389C142.437 15.103 85.8735 17.0266 59.8179 26.8151C42.6147 33.2815 33.1102 41.271 25.8112 55.5643C19.8279 67.2953 16.6686 94.2608 15.956 109.276Z" fill="#1A112B"/>
<path fill-rule="evenodd" clip-rule="evenodd" d="M143.308 176.075L169.955 178.044C171.184 164.212 172.168 150.425 173.099 136.914L175.015 96.3431L148.718 93.5805C147.76 103.909 142.301 171.336 143.308 176.075Z" fill="#E6388D"/>
<path fill-rule="evenodd" clip-rule="evenodd" d="M159.344 187.046C160.494 189.158 159.08 187.159 160.878 189.226L175.375 204.038L188.883 176.895C192.257 171.675 191.451 173.958 196.427 170.821C192.578 167.839 185.256 161.978 181.128 159.842C178.594 187.839 180.249 188.331 159.344 187.046Z" fill="#1A112B"/>
</svg>
