<svg width="20" height="20" viewBox="0 0 20 20" fill="none" xmlns="http://www.w3.org/2000/svg">
<path d="M11.3481 17.8059C10.9867 18.1443 10.5037 18.3334 10.0009 18.3334C9.49821 18.3334 9.01515 18.1443 8.65374 17.8059C5.34418 14.6884 0.908969 11.2058 3.07189 6.1498C4.24136 3.41604 7.04862 1.66675 10.0009 1.66675C12.9532 1.66675 15.7605 3.41605 16.93 6.1498C19.0902 11.1995 14.6658 14.6991 11.3481 17.8059Z" stroke="#F6E774" stroke-width="1.5"/>
<path d="M12.9167 9.16667C12.9167 10.7775 11.6108 12.0833 10 12.0833C8.38917 12.0833 7.08333 10.7775 7.08333 9.16667C7.08333 7.55584 8.38917 6.25 10 6.25C11.6108 6.25 12.9167 7.55584 12.9167 9.16667Z" stroke="#F6E774" stroke-width="1.5"/>
</svg>
