<svg width="70" height="70" viewBox="0 0 70 70" fill="none" xmlns="http://www.w3.org/2000/svg">
<rect x="0.5" y="0.5" width="69" height="69" rx="34.5" stroke="white"/>
<rect x="6" y="6" width="58" height="58" rx="29" fill="white"/>
<path fill-rule="evenodd" clip-rule="evenodd" d="M33.6477 22.25H36.3523C37.846 22.25 39.0568 23.3917 39.0568 24.8C39.0568 26.4116 40.7812 27.4362 42.1967 26.6657L42.3404 26.5875C43.634 25.8833 45.2881 26.3012 46.0349 27.5208L47.3872 29.7292C48.134 30.9488 47.6908 32.5084 46.3973 33.2126C44.9811 33.9834 44.9811 36.0166 46.3973 36.7874C47.6908 37.4916 48.134 39.0512 47.3872 40.2708L46.0349 42.4792C45.2881 43.6988 43.634 44.1167 42.3404 43.4125L42.1967 43.3343C40.7812 42.5637 39.0568 43.5884 39.0568 45.2C39.0568 46.6083 37.846 47.75 36.3523 47.75H33.6477C32.154 47.75 30.9432 46.6083 30.9432 45.2C30.9432 43.5884 29.2188 42.5638 27.8033 43.3343L27.6596 43.4126C26.366 44.1167 24.7119 43.6988 23.9651 42.4792L22.6128 40.2708C21.866 39.0512 22.3092 37.4916 23.6027 36.7875C25.0189 36.0166 25.0189 33.9834 23.6027 33.2125C22.3092 32.5084 21.866 30.9488 22.6128 29.7292L23.9651 27.5208C24.7119 26.3012 26.366 25.8833 27.6596 26.5874L27.8033 26.6657C29.2188 27.4362 30.9432 26.4116 30.9432 24.8C30.9432 23.3917 32.154 22.25 33.6477 22.25ZM35 39.25C37.3472 39.25 39.25 37.3472 39.25 35C39.25 32.6528 37.3472 30.75 35 30.75C32.6528 30.75 30.75 32.6528 30.75 35C30.75 37.3472 32.6528 39.25 35 39.25Z" fill="#E6388D"/>
</svg>
