<svg width="70" height="70" viewBox="0 0 70 70" fill="none" xmlns="http://www.w3.org/2000/svg">
<rect x="0.5" y="0.5" width="69" height="69" rx="34.5" stroke="white"/>
<rect x="6" y="6" width="58" height="58" rx="29" fill="white"/>
<path fill-rule="evenodd" clip-rule="evenodd" d="M23.2504 27.6411C21.7356 28.7015 20.8334 30.4343 20.8334 32.2834V46.333C20.8334 47.8978 22.1019 49.1664 23.6667 49.1664H25.4375V44.9164V39.2497V36.4164C25.4375 34.2648 27.1818 32.5205 29.3334 32.5205H40.6667C42.8183 32.5205 44.5625 34.2648 44.5625 36.4164V39.2497V44.9164V49.1664H46.3334C47.8982 49.1664 49.1667 47.8978 49.1667 46.333V32.2834C49.1667 30.4343 48.2645 28.7015 46.7497 27.6411L38.2497 21.6911C36.2985 20.3253 33.7016 20.3253 31.7504 21.6911L23.2504 27.6411ZM42.4375 49.1664V45.9789H27.5625V49.1664H42.4375ZM27.5625 43.8539V40.3122H42.4375V43.8539H27.5625ZM27.5625 38.1872H42.4375V36.4164C42.4375 35.4384 41.6447 34.6455 40.6667 34.6455H29.3334C28.3554 34.6455 27.5625 35.4384 27.5625 36.4164V38.1872Z" fill="#3C3052"/>
</svg>
