<svg width="70" height="70" viewBox="0 0 70 70" fill="none" xmlns="http://www.w3.org/2000/svg">
<rect x="0.5" y="0.5" width="69" height="69" rx="34.5" stroke="white"/>
<rect x="6" y="6" width="58" height="58" rx="29" fill="white"/>
<path d="M49.1667 41.3749V45.6249C49.1667 47.5799 47.58 49.1666 45.625 49.1666H35.51C34.2492 49.1666 33.6258 47.6508 34.5042 46.7583L42.82 38.2583C43.0892 37.9891 43.4575 37.8333 43.8258 37.8333H45.625C47.58 37.8333 49.1667 39.4199 49.1667 41.3749Z" fill="#3C3052"/>
<path d="M44.0242 33.9942L40.185 37.8333L36.7 41.3042C35.8075 42.1967 34.2775 41.5733 34.2775 40.3125C34.2775 35.765 34.2775 28.285 34.2775 28.285C34.2775 27.9025 34.4334 27.5483 34.6884 27.2792L35.9917 25.9758C37.38 24.5875 39.6184 24.5875 41.0067 25.9758L44.01 28.9792C45.4125 30.3675 45.4125 32.6058 44.0242 33.9942Z" fill="#3C3052"/>
<path d="M28.625 20.8333H24.375C22.25 20.8333 20.8333 22.2499 20.8333 24.3749V43.4999C20.8333 43.8824 20.8758 44.2649 20.9466 44.6333C20.9891 44.8174 21.0316 45.0016 21.0883 45.1858C21.1591 45.3983 21.23 45.6108 21.315 45.8091C21.3291 45.8233 21.3291 45.8374 21.3291 45.8374C21.3433 45.8374 21.3433 45.8374 21.3291 45.8516C21.5275 46.2483 21.7541 46.6308 22.0233 46.9849C22.1791 47.1691 22.335 47.3391 22.4908 47.5091C22.6466 47.6791 22.8166 47.8208 23.0008 47.9624L23.015 47.9766C23.3691 48.2458 23.7516 48.4724 24.1483 48.6708C24.1625 48.6566 24.1625 48.6566 24.1625 48.6708C24.375 48.7699 24.5875 48.8408 24.8141 48.9116C24.9983 48.9683 25.1825 49.0108 25.3666 49.0533C25.735 49.1241 26.1175 49.1666 26.5 49.1666C27.0808 49.1666 27.6758 49.0816 28.2283 48.8974C28.3841 48.8408 28.54 48.7841 28.6958 48.7133C29.1916 48.5149 29.6733 48.2316 30.0983 47.8633C30.2258 47.7641 30.3675 47.6366 30.495 47.5091L30.5516 47.4524C31.5433 46.4324 32.1666 45.0299 32.1666 43.4999V24.3749C32.1666 22.2499 30.75 20.8333 28.625 20.8333ZM26.5 45.6249C25.3241 45.6249 24.375 44.6758 24.375 43.4999C24.375 42.3241 25.3241 41.3749 26.5 41.3749C27.6758 41.3749 28.625 42.3241 28.625 43.4999C28.625 44.6758 27.6758 45.6249 26.5 45.6249Z" fill="#3C3052"/>
</svg>
